<?xml version="1.0" encoding="UTF-8" standalone="no"?><!DOCTYPE svg PUBLIC "-//W3C//DTD SVG 1.1//EN" "http://www.w3.org/Graphics/SVG/1.1/DTD/svg11.dtd"><svg width="100%" height="100%" viewBox="0 0 900 900" version="1.1" xmlns="http://www.w3.org/2000/svg" xmlns:xlink="http://www.w3.org/1999/xlink" xml:space="preserve" style="fill-rule:evenodd;clip-rule:evenodd;stroke-linecap:round;stroke-linejoin:round;stroke-miterlimit:1.5;"><g id="KIBA"><path d="M626.531,236.717l-26.531,663.283l-300,0l-26.531,-663.283l353.062,0Z" style="fill:url(#_Linear1);"/><path d="M624.52,130.881c1.578,-0.783 5.48,-0.881 5.48,-0.881c0.884,0.119 1.768,0.239 2.652,0.358c0.821,0.35 1.696,0.593 2.463,1.049c0.767,0.456 1.478,1.021 2.096,1.665c1.247,1.298 2.121,2.909 2.529,4.663c0.202,0.869 0.168,1.776 0.252,2.665l-30,750c-0.195,0.997 -0.24,2.036 -0.585,2.993c-0.345,0.956 -0.843,1.869 -1.46,2.677c-1.249,1.635 -2.971,2.845 -4.933,3.465c-0.969,0.306 -2.008,0.31 -3.014,0.465l-300,0c-1.005,-0.155 -2.045,-0.159 -3.014,-0.465c-0.969,-0.306 -1.902,-0.768 -2.734,-1.352c-1.683,-1.182 -2.961,-2.855 -3.659,-4.79c-0.345,-0.957 -0.39,-1.996 -0.585,-2.993l-30,-750c0.084,-0.889 0.05,-1.796 0.252,-2.665c0.202,-0.869 0.524,-1.718 0.95,-2.502c0.858,-1.583 2.128,-2.905 3.675,-3.826c0.767,-0.456 1.602,-0.812 2.463,-1.049c0.86,-0.236 1.76,-0.388 2.652,-0.358c1.874,0.064 5.117,0.676 6.748,2.168c1.63,1.491 2.537,4.355 3.035,6.781c0.61,2.972 0.625,11.051 0.625,11.051l14.286,357.154c0.174,4.349 3.75,7.784 8.101,7.784c0.3,0 0.601,0 0.902,0c4.798,0 8.74,3.788 8.932,8.582c2.148,53.694 13.646,341.146 13.646,341.146l247.45,0c0,0 11.459,-286.471 13.635,-340.869c0.198,-4.949 4.268,-8.859 9.221,-8.859c0,0 0,0 0.001,0c4.699,0 8.561,-3.71 8.749,-8.406l14.261,-356.532c0,0 0.118,-12.117 0.939,-15.303c0.459,-1.782 2.41,-3.034 3.989,-3.816Z"/><rect x="0" y="0" width="900" height="900" style="fill:none;"/><clipPath id="_clip2"><rect x="0" y="0" width="900" height="900"/></clipPath><g clip-path="url(#_clip2)"><g><path d="M623.791,42.666l-136.167,294.507l136.167,-294.507" style="stroke:#cd8300;stroke-width:10.5px;"/><g><path d="M619.876,51.133c0,0 -82.838,-20.529 -121.797,-14.702c-38.959,5.826 -87.623,35.048 -111.954,49.659" style="fill:none;stroke:#cd8300;stroke-width:10.5px;"/><path d="M619.876,51.133c0,0 -49.875,14.081 -71.292,27.973c-21.458,13.918 -39.031,34.173 -57.45,55.536" style="fill:none;stroke:#cd8300;stroke-width:10.5px;"/></g><g><path d="M619.876,51.133c0,0 69.299,49.813 90.096,83.268c20.797,33.454 30.056,89.458 34.686,117.459" style="fill:none;stroke:#cd8300;stroke-width:10.5px;"/><path d="M619.876,51.133c0,0 21.58,47.119 24.869,72.434c3.295,25.363 -0.753,51.871 -5.096,79.741" style="fill:none;stroke:#cd8300;stroke-width:10.5px;"/></g><path d="M384.69,74.542c64.72,-54.214 157.448,-69.629 239.101,-31.876c81.653,37.753 129.974,118.383 130.594,202.806l-369.695,-170.93Z" style="fill:#c426cc;"/></g></g></g><defs><linearGradient id="_Linear1" x1="0" y1="0" x2="1" y2="0" gradientUnits="userSpaceOnUse" gradientTransform="matrix(3.83515e-14,-626.327,626.327,3.83515e-14,450,863.044)"><stop offset="0%" style="stop-color:#ad2c09;stop-opacity:1"/><stop offset="39%" style="stop-color:#d69345;stop-opacity:1"/><stop offset="50%" style="stop-color:#fffa80;stop-opacity:1"/><stop offset="63%" style="stop-color:#de854d;stop-opacity:1"/><stop offset="100%" style="stop-color:#bd101a;stop-opacity:1"/></linearGradient></defs></svg>