<?xml version="1.0" encoding="UTF-8" standalone="no"?><!DOCTYPE svg PUBLIC "-//W3C//DTD SVG 1.1//EN" "http://www.w3.org/Graphics/SVG/1.1/DTD/svg11.dtd"><svg width="100%" height="100%" viewBox="0 0 900 900" version="1.1" xmlns="http://www.w3.org/2000/svg" xmlns:xlink="http://www.w3.org/1999/xlink" xml:space="preserve" style="fill-rule:evenodd;clip-rule:evenodd;stroke-linejoin:round;stroke-miterlimit:1.41421;"><g id="Martini"><g><path d="M600,890c0,0 -100.006,-25.495 -150.006,-25.495c-50,0 -149.994,25.495 -149.994,25.495l0,8l300,0l0,-8Z"/><rect x="430" y="547.81" width="40" height="326.843"/></g><path d="M450,580.893l-163.837,-282.893l327.674,0l-163.837,282.893Z" style="fill:#ffcf4b;"/><path d="M645.979,226.287c1.182,-0.677 2.859,-0.681 4.021,-0.728c0.993,-0.04 1.966,0.297 2.949,0.445c0.896,0.432 1.866,0.735 2.687,1.295c1.662,1.134 2.942,2.742 3.676,4.614c0.362,0.926 0.587,1.917 0.661,2.909c0.073,0.991 -0.004,2.005 -0.226,2.974c-0.223,0.969 -0.729,1.85 -1.093,2.775l-200,345.333c-1.628,2.036 -1.89,2.832 -4.32,4.001c-1.809,0.87 -3.838,1.175 -5.823,0.876c-0.981,-0.147 -1.95,-0.446 -2.845,-0.876c-0.894,-0.43 -1.733,-1.001 -2.461,-1.675c-0.728,-0.675 -1.239,-1.551 -1.859,-2.326l-200,-345.333c-0.956,-2.429 -1.518,-3.055 -1.319,-5.749c0.074,-0.992 0.299,-1.983 0.661,-2.909c0.734,-1.872 2.014,-3.48 3.676,-4.614c0.821,-0.56 1.737,-1.002 2.687,-1.295c0.95,-0.293 1.96,-0.55 2.949,-0.445c1.318,0.14 3.519,0.369 4.961,1.285c1.463,0.93 3.816,4.292 3.816,4.292l8.571,14.423l182.652,315.38l182.652,-315.38c0,0 7.907,-12.651 10.128,-15.863c0.886,-1.282 1.996,-2.72 3.199,-3.409Z"/><g><path d="M688.019,189.902l-12.291,-14.211l-288.225,258.069l2.651,3.066l297.865,-246.924Z" style="fill:#94674c;"/><path d="M589.495,243.497c-1.928,7.1 -0.798,13.884 3.701,17.996c3.448,3.15 8.279,4.189 13.452,3.353c3.055,17.169 -5.431,40.684 -23.468,60.421c-24.815,27.155 -58.373,36.945 -74.891,21.849c-16.519,-15.095 -9.784,-49.397 15.031,-76.551c21.007,-22.987 48.278,-33.53 66.175,-27.068Z" style="fill:#3d7148;"/></g></g></svg>