<?xml version="1.0" encoding="UTF-8" standalone="no"?><!DOCTYPE svg PUBLIC "-//W3C//DTD SVG 1.1//EN" "http://www.w3.org/Graphics/SVG/1.1/DTD/svg11.dtd"><svg width="100%" height="100%" viewBox="0 0 900 900" version="1.1" xmlns="http://www.w3.org/2000/svg" xmlns:xlink="http://www.w3.org/1999/xlink" xml:space="preserve" style="fill-rule:evenodd;clip-rule:evenodd;stroke-linejoin:round;stroke-miterlimit:1.41421;"><g id="Surprise"><g><path d="M600,892c0,0 -100.006,-25.495 -150.006,-25.495c-50,0 -149.994,25.495 -149.994,25.495l0,8l300,0l0,-8Z"/><rect x="430" y="549.81" width="40" height="326.843"/></g><path d="M686.462,320.017c-22.923,42.534 -68.363,77.296 -126.054,97.061c-8.227,79.192 -54.559,139.921 -110.408,139.921c-55.849,0 -102.181,-60.729 -110.408,-139.921c-57.691,-19.765 -103.131,-54.527 -126.054,-97.061l472.924,0Z" style="fill:#fc0;"/><path d="M698.07,248.467c1.315,-0.951 3.418,-1.486 4.733,-1.467c1.051,0.015 2.062,0.327 3.093,0.49c2.438,1.244 3.334,1.339 5.003,3.64c0.613,0.845 1.097,1.799 1.418,2.792c0.322,0.994 0.343,2.06 0.486,3.094c0.019,0.142 0,0.285 -0.001,0.428c-0.001,0.444 -0.005,0.888 -0.011,1.332c-0.03,2.357 -0.121,4.714 -0.273,7.067c-0.489,7.57 -1.611,15.098 -3.337,22.485c-1.753,7.5 -4.129,14.853 -7.059,21.976c-1.78,4.328 -3.764,8.572 -5.933,12.719c-1.64,3.137 -3.386,6.217 -5.229,9.239c-1.393,2.285 -2.842,4.536 -4.343,6.751c-10.998,16.236 -24.729,30.525 -39.984,42.805c-2.636,2.122 -5.319,4.185 -8.045,6.19c-3.558,2.618 -7.189,5.137 -10.883,7.558c-4.884,3.202 -9.878,6.234 -14.965,9.101c-6.254,3.524 -12.649,6.799 -19.155,9.833c-5.232,2.438 -10.536,4.722 -15.9,6.853c-2.64,1.048 -5.295,2.058 -7.962,3.035l-0.107,0.04c-0.08,0.613 -0.162,1.227 -0.246,1.84c-0.088,0.634 -0.177,1.268 -0.269,1.901c-0.575,3.917 -1.237,7.82 -2,11.705c-2.238,11.387 -5.31,22.615 -9.282,33.521c-3.313,9.096 -7.253,17.97 -11.872,26.48c-4.374,8.057 -9.359,15.791 -15.004,23.017c-4.491,5.75 -9.401,11.177 -14.743,16.148c-4.232,3.938 -8.734,7.589 -13.497,10.866c-5.547,3.817 -11.45,7.126 -17.641,9.779c-4.447,1.906 -9.04,3.473 -13.732,4.657c-4.825,1.217 -9.752,2.026 -14.713,2.406c-6.951,0.531 -13.963,0.22 -20.839,-0.921c-4.654,-0.773 -9.244,-1.925 -13.716,-3.424c-3.332,-1.116 -6.599,-2.425 -9.785,-3.906c-2.433,-1.131 -4.819,-2.364 -7.154,-3.687c-1.603,-0.909 -3.182,-1.862 -4.735,-2.854c-10.954,-6.998 -20.581,-15.952 -28.84,-25.961c-1.439,-1.744 -2.838,-3.521 -4.197,-5.328c-1.541,-2.049 -3.03,-4.137 -4.47,-6.258c-1.929,-2.843 -3.767,-5.746 -5.518,-8.7c-2.295,-3.872 -4.44,-7.833 -6.441,-11.864c-2.706,-5.452 -5.148,-11.035 -7.34,-16.713c-2.759,-7.149 -5.122,-14.451 -7.11,-21.852c-1.899,-7.072 -3.454,-14.236 -4.681,-21.455c-0.507,-2.987 -0.955,-5.983 -1.354,-8.987l-0.053,-0.41c-0.706,-0.258 -1.409,-0.519 -2.113,-0.781c-0.666,-0.249 -1.331,-0.5 -1.995,-0.753c-2.969,-1.135 -5.922,-2.31 -8.855,-3.535c-5.453,-2.277 -10.838,-4.714 -16.143,-7.317c-6.251,-3.066 -12.389,-6.361 -18.389,-9.893c-4.435,-2.611 -8.793,-5.35 -13.063,-8.222c-3.517,-2.366 -6.974,-4.821 -10.363,-7.368c-2.569,-1.931 -5.099,-3.914 -7.586,-5.951c-15.347,-12.568 -29.099,-27.206 -39.981,-43.828c-1.462,-2.233 -2.871,-4.501 -4.224,-6.803c-1.79,-3.045 -3.482,-6.148 -5.066,-9.305c-2.356,-4.697 -4.475,-9.515 -6.33,-14.432c-2.461,-6.524 -4.455,-13.224 -5.936,-20.038c-1.332,-6.129 -2.248,-12.348 -2.733,-18.602c-0.273,-3.521 -0.404,-7.052 -0.41,-10.584l0.486,-3.094c0.472,-0.93 0.805,-1.947 1.418,-2.792c1.241,-1.711 2.993,-2.986 5.003,-3.64c0.993,-0.322 2.05,-0.516 3.093,-0.49c2.24,0.056 4.606,0.383 6.413,2.148c1.83,1.789 2.633,4.463 3.192,6.95c0.669,2.975 0.822,10.902 0.822,10.902c0.59,6.889 1.796,13.721 3.577,20.4c1.226,4.595 2.723,9.117 4.467,13.542c1.301,3.301 2.74,6.547 4.304,9.732c1.074,2.188 2.208,4.347 3.397,6.474c8.384,15.004 19.473,28.397 32.064,40.053c2.105,1.949 4.253,3.85 6.441,5.705c2.561,2.171 5.177,4.279 7.84,6.324c3.551,2.727 7.188,5.342 10.898,7.848c4.959,3.349 10.049,6.505 15.246,9.472c6.476,3.698 13.117,7.103 19.887,10.23c6.099,2.818 12.303,5.408 18.589,7.78c2.819,1.065 5.656,2.082 8.507,3.061l2.518,1.289c0.686,0.647 1.47,1.204 2.057,1.942c0.588,0.738 1.074,1.567 1.431,2.44c0.357,0.873 0.478,1.825 0.69,2.744c0.035,0.148 0.032,0.302 0.048,0.454c0.047,0.443 0.096,0.887 0.145,1.33c0.066,0.59 0.135,1.179 0.204,1.768c0.44,3.641 0.96,7.272 1.575,10.887c1.676,9.869 4.023,19.627 7.092,29.157c2.676,8.309 5.902,16.445 9.729,24.292c3.563,7.303 7.65,14.36 12.315,21.016c3.675,5.243 7.71,10.238 12.133,14.869c7.352,7.697 15.816,14.423 25.316,19.276c3.581,1.83 7.302,3.387 11.13,4.62c3.836,1.235 7.778,2.141 11.772,2.685c5.131,0.699 10.343,0.797 15.498,0.294c3.539,-0.346 7.049,-0.977 10.49,-1.875c2.466,-0.643 4.895,-1.422 7.277,-2.326c1.612,-0.611 3.202,-1.28 4.767,-2.001c8.974,-4.131 17.097,-9.965 24.254,-16.746c1.026,-0.973 2.034,-1.966 3.023,-2.978c1.161,-1.188 2.297,-2.402 3.407,-3.639c1.437,-1.602 2.83,-3.242 4.182,-4.917c1.68,-2.081 3.295,-4.215 4.847,-6.393c2.091,-2.936 4.068,-5.953 5.935,-9.036c2.395,-3.954 4.611,-8.016 6.656,-12.161c2.601,-5.272 4.928,-10.677 6.998,-16.178c2.756,-7.324 5.056,-14.818 6.932,-22.415c1.653,-6.696 2.976,-13.474 3.984,-20.298c0.431,-2.921 0.802,-5.851 1.121,-8.787l0.048,-0.444l0.048,-0.454l0.69,-2.744c0.477,-0.813 0.843,-1.703 1.431,-2.44c0.587,-0.738 1.286,-1.399 2.057,-1.943c0.77,-0.543 1.67,-0.877 2.519,-1.288c0.153,-0.074 0.323,-0.111 0.485,-0.166c0.476,-0.165 0.952,-0.33 1.428,-0.497c0.632,-0.222 1.264,-0.445 1.896,-0.671c2.819,-1.011 5.623,-2.061 8.41,-3.157c5.918,-2.327 11.759,-4.851 17.503,-7.58c6.424,-3.051 12.728,-6.358 18.878,-9.932c5.027,-2.921 9.952,-6.02 14.751,-9.304c3.686,-2.521 7.298,-5.152 10.823,-7.894c2.644,-2.056 5.24,-4.175 7.781,-6.358c1.955,-1.679 3.877,-3.396 5.764,-5.151c12.368,-11.499 23.271,-24.681 31.562,-39.424c1.321,-2.349 2.575,-4.735 3.756,-7.157c1.499,-3.074 2.881,-6.206 4.135,-9.388c1.698,-4.309 3.163,-8.71 4.37,-13.182c1.201,-4.446 2.147,-8.962 2.825,-13.518c0.349,-2.346 0.623,-4.702 0.833,-7.064l0.016,-0.178c0,0 0.338,-7.735 1.287,-10.824c0.338,-1.099 0.677,-2.666 1.252,-3.786c0.905,-1.763 2.052,-3.126 3.155,-3.923Z"/><g><path d="M748.958,161.932l-12.291,-14.211l-288.225,258.07l2.651,3.065l297.865,-246.924Z" style="fill:#94674c;"/><path d="M650.434,215.527c-1.928,7.1 -0.798,13.884 3.701,17.996c3.448,3.15 8.279,4.19 13.452,3.353c3.055,17.17 -5.431,40.684 -23.468,60.422c-24.815,27.154 -58.373,36.944 -74.891,21.849c-16.519,-15.096 -9.784,-49.398 15.031,-76.552c21.007,-22.987 48.278,-33.53 66.175,-27.068Z" style="fill:#3d7148;"/></g></g></svg>