<svg xmlns="http://www.w3.org/2000/svg" version="1.1" width="600px" height="600px" xlink="http://www.w3.org/1999/xlink" style="overflow:hidden!important;"><g id="svga-group-wrapper" transform="scale(3 3)"><g id="svga-group-backs-single"><path id="SvgjsPath2877" d="M225 225H-25V-25h250V225z" fill="#ecf0f1" stroke-width="none" opacity="1"></path></g><g id="svga-group-subwrapper" ><g id="svga-group-hair-back" ><path id="SvgjsPath3370" d="M100.5,100.5h-1v-1h1V100.5z" fill="#4b4b4b" stroke-width="none" opacity="1" stroke="none"></path></g><g id="svga-group-humanbody-single"><path id="SvgjsPath2893" d="M195.417 199.778c-2.196-4.746-8.195-11.779-14.86-13.722 -8.239-2.403-26.837-5.308-33.733-6.923 -5.528-1.296-16.662-11.294-20.564-14.65 -0.7-0.6-1.273-1.839-1.287-2.76 -0.139-10.864 4.195-39.724 4.195-39.724H100 70.833c0 0 4.334 28.859 4.193 39.724 -0.011 0.921-0.587 2.16-1.285 2.76 -3.902 3.356-15.036 13.354-20.564 14.65 -6.897 1.615-25.495 4.619-33.733 7.022 -6.667 1.942-12.664 8.876-14.86 13.622 -3.708 8.008-4.584 22.5-4.584 35h100 100C200 222.278 199.123 207.786 195.417 199.778z" fill="#ffd0bc" stroke-width="none" opacity="1" stroke="none"></path><path id="SvgjsPath2894" d="M159.156 184.058c24.342 3.542 34.586 8.708 37.794 50.721H200c0-12.5-0.877-26.992-4.583-35 -2.196-4.746-8.195-11.779-14.86-13.722 -8.239-2.403-26.837-5.308-33.733-6.923 -5.528-1.296-18.242-12.069-21.643-16.35 3.36 4.704 12.791 15.605 21.054 18.46C150.188 182.61 153.48 183.232 159.156 184.058zM53.766 181.244c8.263-2.854 17.693-13.756 21.054-18.46 -3.4 4.28-16.114 15.054-21.643 16.35 -6.896 1.615-25.494 4.619-33.733 7.022 -6.665 1.942-12.664 8.876-14.86 13.622 -3.706 8.008-4.583 22.5-4.583 35h3.05c3.188-41.744 13.475-47.183 37.794-50.721C46.52 183.232 49.813 182.61 53.766 181.244z" fill="#ffe2d6" stroke-width="none" opacity="1" stroke="none"></path><path id="SvgjsPath2895" d="M95.646 197.62c0 0-5.074-1.609-7.083-2.379 -10.449-4.009-44.395-6.607-44.395-6.607s35.754 1.419 43.644 2.779c-0.458-4.767-3.017-20.004-3.017-20.004s5.149 16.815 6.409 21.057C91.878 194.734 95.646 197.62 95.646 197.62zM106.445 196.278c-0.089 0.073-0.191 0.168-0.302 0.268C106.256 196.461 106.358 196.372 106.445 196.278zM95.646 197.62c0 0 2.893 2.992 4.347 3.03 1.91 0.051 4.828-2.899 6.151-4.104 -1.265 0.957-4.159 1.391-5.31 1.436C99.504 198.033 95.646 197.62 95.646 197.62zM116.664 190.101c-1.545 0.248-4.386 0.789-4.386 0.789l2.287-14.89c-0.646 3.071-4.474 16.211-8.12 20.278 1.91-1.616 6.158-2.391 8.324-2.704 10.236-1.484 10.232-1.483 41.062-4.94C155.831 188.634 126.76 188.479 116.664 190.101z" fill="#f0b399" stroke-width="none" opacity="1" stroke="none"></path><path id="SvgjsPath2896" d="M195.417 199.778c-2.196-4.746-8.195-11.779-14.86-13.722 -8.239-2.403-26.837-5.308-33.733-6.923 -5.528-1.296-16.662-11.294-20.564-14.65 -0.7-0.6-1.273-1.839-1.287-2.76 -0.139-10.864 4.195-39.724 4.195-39.724H100 70.833c0 0 4.334 28.859 4.193 39.724 -0.011 0.921-0.587 2.16-1.285 2.76 -3.902 3.356-15.036 13.354-20.564 14.65 -6.897 1.615-25.495 4.619-33.733 7.022 -6.667 1.942-12.664 8.876-14.86 13.622 -3.708 8.008-4.584 22.5-4.584 35h100 100C200 222.278 199.123 207.786 195.417 199.778z" fill="none" stroke="#d17f5b" stroke-width="1.5" opacity="1"></path></g><g id="svga-group-chinshadow-single"><path id="SvgjsPath3078" d="M75.602 162.779c7.126 5.302 15.497 9.087 24.401 9.087 8.902 0 17.269-3.781 24.394-9.08 -0.104-0.358-0.17-0.718-0.175-1.053 -0.088-6.862 1.561-20.607 2.82-30.025 -15.654-1.97-38.431-1.97-54.084 0 1.26 9.419 2.908 23.163 2.819 30.024C75.773 162.063 75.707 162.42 75.602 162.779z" fill="url(#SvgjsLinearGradient3079)" opacity="1"></path></g><g id="svga-group-clothes-single" ><path id="SvgjsPath2898" d="M111.806 235.888c-19.135 0-41.455-0.074-68.233-0.229l-23.679-0.128c-14.298-0.078-15.141-0.094-16.887-0.094l-4.899 0.007c-4.571-41.875 14.41-52.87 43.762-56.708 7.789-1.097 15.449-3.097 21.459-6.972 16.327 22.243 64.811 17.562 73.103-0.629 1.39 0.53 2.539 1.215 3.977 1.734 4.666 3.433 11.072 5.836 17.628 6.199 26.008 1.441 44.419 12.996 44.057 54.64 0.003 0.165 0.004 1.175-0.013 1.49 -12.513 0-17.206 0.121-27.034 0.262 -13.331 0.19-29.923 0.427-63.229 0.427C111.813 235.888 111.81 235.888 111.806 235.888z" fill="#386e77" stroke-width="none" opacity="1"></path><path id="SvgjsPath2899" d="M201.055 234.64c-0.41-7.385-4.064-28.058-10.36-37.541 -12.482-18.805-42.26-12.206-49.132-19.693 -4.986 10.159-24.975 16.595-31.594 17.54 19.181-6.36 27.237-10.959 30.42-21.87 6.405 8.33 41.074 1.971 54.717 24.331C199.101 203.954 202.9 224.793 201.055 234.64zM55.811 177.628c1.357-0.315 2.034-1.249 3.381-1.614l-1.426-1.891c-9.049 7.052-42.909 2.645-54.519 24.036 -3.659 6.741-6.127 22.788-4.192 36.439 0.537-8.384 0.799-26.314 7.095-35.798 11.324-17.06 31.974-12.553 47.619-19.775 6.983 8.6 17.888 12.828 28.984 14.577C68.832 189.971 60.85 183.84 55.811 177.628z" fill="#4d7e86" stroke-width="none" opacity="1"></path><path id="SvgjsPath2900" d="M135.31 173.244c-5.532 11.514-47.35 24.923-70.93 0.879 -1.466 0.622-5.852 2.112-5.852 2.112 17.176 23.386 67.511 23.534 80.909-0.114C139.378 176.098 136.672 173.936 135.31 173.244z" fill="#265e68" stroke-width="none" opacity="1"></path><path id="SvgjsPath2901" d="M136.38 171.002c-9.413 18.822-58.397 21.485-73.012 0.632 -5.337 1.578-10.469 4.941-15.636 5.782C16.812 182.021-6.046 184.335-2 235.552c9.94 0-6.611-0.065 45.571 0.215 123.59 0.71 119.562-0.461 158.606-0.461 0.029-0.14 0.015-1.452 0.021-1.596 2.096-56.436-30.852-53.104-53.12-56.995 -3.144-0.718-6.066-2.773-8.635-3.945C139.024 172.121 137.818 171.538 136.38 171.002zM63.014 172.265c12.974 23.392 64.219 18.699 74.113 0.101 1.2 0.504 1.507 0.704 2.898 1.197 -10.248 21.489-60.942 28.337-81.677 1.163C58.494 174.685 61.552 172.813 63.014 172.265zM-0.845 234.778c-2.421-26.431 1.797-48.043 32.78-53.345 10.276-1.896 16.557-1.962 25.384-5.794 16.763 27.405 72.098 23.158 83.598-1.305 1.652 1.409 4.228 3.03 7.405 3.785 18.098 4.299 54.838-0.894 52.898 56.658C147.163 234.075 102.355 232.433-0.845 234.778z" fill="#0c4049" stroke-width="none" opacity="1"></path></g><g id="svga-group-head" ><g id="svga-group-ears-left" transform="matrix(1.00000011 0 0 1.00000011 -0.000004935810032691279 -0.000010636449971457296)"><path id="SvgjsPath3509" d="M47.69 83.08c-1.588-2.376-8.025-7.833-11.703-6.994 -4.355 0.993-5.708 4.372-5.603 6.475 0.606 12.025 4.426 12.016 6.71 16.64 1.709 3.459 3.126 5.044 4.172 11.958 0.598 3.953 4.427 6.984 7.217 6.835 3.908-0.21 6.994-3.716 8.291-7.173C59.463 103.643 51.823 89.265 47.69 83.08z" fill="#ffd0bc" stroke="#d17f5b" stroke-width="1.5" opacity="1"></path><path id="SvgjsPath3510" d="M43.274 100.336c-0.15-0.554-0.062-1.507 0.024-2.43 0.077-0.84 1.438-3.888 1.348-4.44 -0.344-2.068-1.931-5.94-2.949-8.031 -1.169-2.403-3.604-5.409-5.79-6.078 -0.904-0.278-3.479 0.04-3.781 0.639 -1.131 2.241-0.615 4.411 1.1 10.21 0.85 2.873 3.915 6.207 3.998 6.54 1.067 4.343 5.099 11.284 6.488 12.839 0.256 0.288 0.519 0.452 0.579 0.376 0.059-0.077-0.104-0.368-0.361-0.656 -1.372-1.547-5.367-8.471-6.396-12.662 -1.092-4.446 2.313-11.346 2.93-12.8 0.379 0.642 0.703 1.261 0.954 1.777 0.198 0.406 0.417 0.881 0.645 1.396 -0.367 0.76-4.245 6.367-3.026 10.606 0.451 1.563 2.054 4.592 3.432 6.187 0.483 0.559 0.893 0.717 1.19 1.234 0.341 0.599 0.732 1.279 1.792 1.726 0.215 0.091 0.408 0.121 0.577 0.111 0.293-0.02 0.51-0.161 0.667-0.326 0.029 0.271 0.044 0.617 0.051 0.94 0.007 0.413 0.073 0.752 0.162 0.755s0.168-0.333 0.161-0.746c-0.009-0.509-0.04-1.14-0.132-1.437 -0.273-0.873-1.028-1.832-1.829-2.844C44.319 102.226 43.505 101.193 43.274 100.336zM36.96 94.639c-2.347-6.779-1.518-13.668-1.103-14.643 1.345 0 3.778 2.495 4.397 3.498C39.874 84.351 36.837 89.99 36.96 94.639zM45.559 106.414c-0.961-0.403-1.303-1.001-1.635-1.58 -0.299-0.524-1.018-1.022-1.346-1.378 -0.191-0.209-0.531-0.767-0.715-0.892 -1.762-7.606 1.345-10.382 1.967-10.964 0.231 0.729 0.411 1.399 0.5 1.939 0.082 0.496-1.28 3.552-1.352 4.327 -0.089 0.961-0.182 1.954-0.012 2.583 0.253 0.938 1.093 2 1.904 3.028 0.72 0.912 1.459 1.852 1.732 2.639C46.509 106.282 46.204 106.686 45.559 106.414z" fill="#d17f5b" stroke-width="none" opacity="1"></path></g><g id="svga-group-ears-right" transform="matrix(1.00000011 0 0 1.00000011 -0.000017035369637596887 -0.000010636449971457296)"><path id="SvgjsPath3511" d="M152.049 83.08c1.588-2.376 8.025-7.833 11.701-6.994 4.357 0.993 5.709 4.372 5.604 6.475 -0.605 12.025-4.426 12.016-6.709 16.64 -1.711 3.459-3.127 5.044-4.174 11.958 -0.598 3.953-4.428 6.984-7.217 6.835 -3.908-0.21-6.994-3.716-8.291-7.173C140.275 103.643 147.916 89.265 152.049 83.08z" fill="#ffd0bc" stroke="#d17f5b" stroke-width="1.5" opacity="1"></path><path id="SvgjsPath3512" d="M154.633 103.222c-0.801 1.013-1.557 1.972-1.83 2.844 -0.092 0.297-0.123 0.928-0.131 1.437 -0.008 0.413 0.072 0.749 0.16 0.746 0.09-0.003 0.154-0.342 0.162-0.755 0.008-0.323 0.021-0.67 0.051-0.94 0.156 0.165 0.373 0.307 0.666 0.326 0.17 0.01 0.361-0.021 0.578-0.111 1.061-0.446 1.449-1.126 1.791-1.726 0.297-0.517 0.709-0.675 1.191-1.234 1.377-1.594 2.98-4.624 3.432-6.187 1.219-4.239-2.66-9.846-3.027-10.606 0.229-0.515 0.447-0.989 0.645-1.396 0.252-0.516 0.576-1.136 0.955-1.777 0.617 1.454 4.021 8.354 2.93 12.8 -1.029 4.191-5.025 11.115-6.396 12.662 -0.256 0.288-0.42 0.579-0.361 0.656 0.061 0.076 0.322-0.088 0.578-0.376 1.391-1.556 5.422-8.496 6.49-12.839 0.082-0.333 3.146-3.667 3.996-6.54 1.715-5.799 2.232-7.969 1.102-10.21 -0.303-0.599-2.877-0.917-3.783-0.639 -2.186 0.669-4.619 3.675-5.789 6.078 -1.018 2.09-2.605 5.963-2.949 8.031 -0.09 0.552 1.271 3.6 1.348 4.44 0.086 0.922 0.176 1.875 0.025 2.43C156.232 101.193 155.42 102.226 154.633 103.222zM159.484 83.494c0.619-1.003 3.053-3.498 4.396-3.498 0.416 0.975 1.244 7.864-1.104 14.643C162.902 89.99 159.863 84.351 159.484 83.494zM153.137 106.116c0.273-0.788 1.012-1.728 1.732-2.639 0.811-1.028 1.65-2.09 1.904-3.028 0.168-0.629 0.076-1.623-0.014-2.583 -0.07-0.775-1.434-3.831-1.352-4.327 0.09-0.54 0.27-1.21 0.5-1.939 0.623 0.582 3.729 3.358 1.967 10.964 -0.184 0.125-0.523 0.683-0.715 0.892 -0.328 0.356-1.047 0.854-1.346 1.378 -0.332 0.579-0.674 1.177-1.635 1.58C153.533 106.686 153.23 106.282 153.137 106.116z" fill="#d17f5b" stroke-width="none" opacity="1"></path></g><g id="svga-group-faceshape-wrap" ><g id="svga-group-faceshape-single" ><path id="SvgjsPath3075" d="M100.002 0.867C66.381 0.813 39.186 28.343 39.134 62.366c-0.008 5.403 0.669 10.645 1.953 15.641l0.004 0c0.011 0.054 8.713 39.241 14.519 51.175 6.073 12.487 23.814 32.685 44.392 32.685 20.582 0 38.32-20.197 44.392-32.685 5.805-11.935 14.507-51.122 14.519-51.175l0.005 0c1.283-4.997 1.961-10.238 1.952-15.641C160.819 28.343 133.623 0.813 100.002 0.867z" fill="#ffd0bc" stroke-width="none" opacity="1" stroke="none"></path><path id="SvgjsPath3076" d="M120.754 4.512c21.441 9.489 36.411 31.135 36.45 56.363 0.008 5.403-0.669 10.645-1.953 15.641l-0.005 0c-0.011 0.054-8.713 39.24-14.519 51.177 -5.709 11.738-21.608 32.469-40.725 32.469s-35.016-20.73-40.725-32.469c-5.806-11.937-14.507-51.123-14.519-51.177l-0.004 0c-1.284-4.997-1.962-10.238-1.953-15.641 0.038-25.229 15.008-46.874 36.45-56.363 -23.386 8.55-40.076 31.208-40.117 57.854 -0.008 5.403 0.669 10.645 1.953 15.641l0.004 0c0.011 0.054 8.713 39.241 14.519 51.175 6.073 12.487 23.814 32.685 44.392 32.685 20.579 0 38.319-20.197 44.392-32.685 5.805-11.935 14.507-51.122 14.519-51.175l0.005 0c1.283-4.997 1.961-10.238 1.952-15.641C160.83 35.72 144.14 13.062 120.754 4.512z" fill="#f7c1aa" stroke-width="none" opacity="1" stroke="none"></path><path id="SvgjsPath3077" d="M100.002 0.867C66.381 0.813 39.186 28.343 39.134 62.366c-0.008 5.403 0.669 10.645 1.953 15.641l0.004 0c0.011 0.054 8.713 39.241 14.519 51.175 6.073 12.487 23.814 32.685 44.392 32.685 20.582 0 38.32-20.197 44.392-32.685 5.805-11.935 14.507-51.122 14.519-51.175l0.005 0c1.283-4.997 1.961-10.238 1.952-15.641C160.819 28.343 133.623 0.813 100.002 0.867z" fill="none" stroke="#d17f5b" stroke-width="1.5" opacity="1"></path></g></g><g id="svga-group-mouth-single" transform="translate(0 -3.0000002)"><path id="SvgjsPath3513" d="M99.956 142.599c-5.159 0-9.49-3.032-9.49-3.032 9.005 1.084 20.036-0.644 20.036-0.644S106.471 142.599 99.956 142.599z" fill="#f7c1aa" stroke-width="none" opacity="1"></path><path id="SvgjsPath3514" d="M99.958 139.593c-3.336 0.024-10.989-1.567-13.867-2.818 -1.703-0.736-4.649-3.291-6.698-4.591 -0.787-0.5-0.46-1.466 0.578-1.505 2.524-0.095 5.769 0.939 7.288 1.121 3.184 0.372 7.201 1.759 12.647 1.759 4.046 0 8.469-1.103 11.289-1.509 1.696-0.244 5.619-1.319 8.378-1.439 1.041-0.048 1.465 0.745 0.695 1.262 -2.156 1.464-5.613 4.15-7.478 4.902C109.775 137.991 102.966 139.572 99.958 139.593z" fill="#000000" stroke-width="none" opacity="0.5"></path><path id="SvgjsPath3515" d="M83.82 130.791c0 0 0.355 2.327 0.896 2.992 0.746 0.915 5.281 2.794 7.092 3.057 1.232 0.176 3.49 0.456 4.732 0.588 1.347 0.143 2.104 0.014 3.461-0.021 1.462-0.037 2.71 0.126 4.137-0.13 1.017-0.183 3.989-0.8 4.96-1.098 0.746-0.231 2.25-0.615 2.932-0.951 0.567-0.276 2.317-1.278 2.664-1.721 0.454-0.581 0.876-2.639 0.876-2.639L83.82 130.791z" fill="#ffffff" stroke-width="none" opacity="1"></path><path id="SvgjsPath3516" d="M90.407 131.193c0 0-0.646 5.066-0.705 5.154 -0.058 0.088-0.22-5.154-0.22-5.154H90.407zM93.131 131.757l0.575 5.37 0.372-5.37H93.131zM99.482 132.549l0.718 4.879 0.464-4.963L99.482 132.549zM105.054 131.524c1.207 0.084 1.611 5.223 1.611 5.223l0.166-5.223H105.054zM109.679 130.896c0 0 0.479 4.904 0.547 4.812 0.063-0.093 0.19-4.812 0.19-4.812H109.679zM86.324 130.894l0.351 4.01 0.352-4.01H86.324zM112.989 130.486l0.107 4.2 0.535-4.231L112.989 130.486z" fill="#000000" stroke-width="none" opacity="0.1"></path><path id="SvgjsPath3517" d="M120.915 130.597c-1.51-0.389-4.676-0.119-6.277-0.281 -2.271-0.229-6.874-0.393-9.168-0.342 -1.44 0.032-4.278 0.438-5.717 0.464 -1.477 0.026-4.417-0.441-5.893-0.451 -2.341-0.011-7.056 0.205-9.353 0.513 -1.585 0.212-4.825-0.108-6.095 0.455 -0.293 0.131-0.117 0.719 0 0.941 1.071 2.003 5.197 4.264 8.767 6.188 4.587 2.474 9.41 3.241 13.203 3.242 5.004 0.003 10.898-2.155 15.829-5.407 2.182-1.438 4.943-2.923 5.4-4.31C121.845 130.909 121.306 130.698 120.915 130.597zM99.893 137.525c-3.086 0.019-10.246-1.178-13.269-2.392 -1.813-0.728-4.59-2.471-6.481-3.556 -0.73-0.416 6.65 1.117 8.059 1.267 2.94 0.311 6.656 0.754 11.69 0.754 3.737 0 7.829-0.205 10.437-0.543 1.567-0.204 9.693-2.062 8.987-1.63 -2.001 1.22-5.367 3.084-7.513 3.899C109.081 136.362 102.673 137.503 99.893 137.525z" fill="#e28c7c" stroke-width="none" opacity="1"></path><path id="SvgjsPath3518" d="M83.833 135.39c3.211 0.502 10.441 3.463 16.517 3.303 6.333-0.167 15.733-4.55 16.972-4.069 0.468 1.149-12.22 6.698-16.972 6.786C96.085 141.487 82.49 136.695 83.833 135.39zM99.482 132.549c3.857-0.04 8.569-0.425 11.745-1.604 -3.616-0.971-8.605 0.11-11.475 0.161 -3.722 0.067-6.834-0.896-10.281 0.056C92.764 132.032 96.149 132.584 99.482 132.549z" fill="#ea9b8c" stroke-width="none" opacity="1"></path><path id="SvgjsPath3519" d="M97.309 140.089c-2.334-0.406-2.413-0.571-0.201-0.402 1.353 0.102 2.705 0.126 4.02 0.028 0.174-0.014 0.347-0.027 0.52-0.047 1.48-0.15 3.075-0.523 4.672-1.007 2.499-0.76 2.544-0.575 0.065 0.428 -1.817 0.735-3.511 1.27-4.712 1.381l-0.074 0.007C100.573 140.554 99.034 140.392 97.309 140.089z" fill="#f1aa9d" stroke-width="none" opacity="1"></path><path id="SvgjsPath3520" d="M77.08 133.202c0 0-0.664-1.505-0.57-2.065 0.129-0.788 1.802-2.347 1.802-2.347s-1.012 1.795-1.168 2.361C76.992 131.699 77.08 133.202 77.08 133.202zM122.869 133.394c0 0 0.722-1.636 0.622-2.245 -0.142-0.855-1.96-2.55-1.96-2.55s1.102 1.951 1.271 2.566C122.965 131.76 122.869 133.394 122.869 133.394z" fill="#d17f5b" stroke-width="none" opacity="1"></path></g><g id="svga-group-eyes-left" transform="matrix(0.89999969 0 0 0.89999969 7.278372248552969 8.426476279161008) translate(0 2.0000001000000003)"><g id="svga-group-eyesback-left"><path id="SvgjsPath3446" d="M76.732 78.383c4.587 0.679 7.931 3.488 10.773 7.94 0.004 0.005 0.013 0.004 0.018 0.008 0.007 0.027 0.021 0.053 0.026 0.08 0.255 1.007-0.816 1.819-2.155 2.438 -4.771 0.609-9.359 1.489-14.194 0.87 -9.681-1.241-9.855-5.509-10.326-6.629 -0.252-1.101-0.325-1.417-0.311-2.473 2.332-1.366 4.043-1.647 5.854-2.005C68.541 78.194 73.268 77.868 76.732 78.383z" fill="url(#SvgjsRadialGradient3447)" opacity="1"></path></g><g id="svga-group-eyesiriswrapper-left" transform="translate(0.25 0)"><g id="svga-group-eyesiriscontrol-left" ><g id="svga-group-eyesiris-left" ><path id="SvgjsPath3400" d="M80 84c0 3.313-2.687 6-6 6 -3.313 0-6-2.687-6-6l0 0c0-3.314 2.687-6 6-6C77.313 77.999 80 80.686 80 84L80 84z" fill="#3e4442" stroke-width="none" opacity="1" stroke="none"></path><path id="SvgjsPath3401" d="M73.328 78.066c-0.023 0.003-0.047 0.006-0.071 0.009 0.029 0.135 0.057 0.271 0.085 0.406C73.336 78.344 73.333 78.204 73.328 78.066zM73.341 78.48c0.07 1.972 0.185 3.729 0.517 4.364C74.033 82.148 73.735 80.414 73.341 78.48zM73.859 82.845c-0.043 0.167-0.108 0.281-0.208 0.319 -0.1 0.038-0.226-0.006-0.368-0.103 0.041 0.167 0.037 0.297-0.036 0.378 -0.072 0.081-0.201 0.101-0.373 0.078 0.113 0.13 0.171 0.249 0.146 0.353 -0.027 0.104-0.134 0.182-0.293 0.242 0.159 0.063 0.266 0.141 0.291 0.245 0.025 0.104-0.033 0.223-0.145 0.352 0.17-0.021 0.301 0.001 0.371 0.082 0.071 0.081 0.075 0.212 0.035 0.379 0.141-0.097 0.265-0.139 0.365-0.1 0.101 0.038 0.166 0.152 0.206 0.32 0.081-0.152 0.171-0.249 0.28-0.26 0.104-0.014 0.216 0.059 0.329 0.188 0.001-0.172 0.037-0.299 0.127-0.36 0.088-0.061 0.219-0.049 0.379 0.013 -0.078-0.152-0.105-0.281-0.055-0.377 0.05-0.095 0.173-0.146 0.344-0.166 -0.141-0.099-0.227-0.2-0.225-0.308 0-0.108 0.084-0.209 0.227-0.306 -0.17-0.021-0.291-0.072-0.342-0.167 -0.049-0.095-0.022-0.225 0.058-0.377 -0.162 0.06-0.292 0.072-0.38 0.011 -0.089-0.061-0.125-0.188-0.125-0.36 -0.112 0.128-0.224 0.199-0.33 0.185C74.029 83.092 73.938 82.998 73.859 82.845zM74.466 82.92c0.479-0.535 1.021-2.209 1.57-4.104C75.182 80.593 74.467 82.202 74.466 82.92zM76.035 78.816c0.06-0.122 0.121-0.246 0.178-0.37 -0.021-0.007-0.042-0.017-0.063-0.026C76.112 78.553 76.074 78.686 76.035 78.816zM74.972 83.27c0.672-0.252 1.931-1.483 3.297-2.905C76.688 81.541 75.306 82.634 74.972 83.27zM78.269 80.365c0.1-0.075 0.203-0.15 0.305-0.225 -0.014-0.018-0.03-0.033-0.042-0.049C78.445 80.181 78.358 80.274 78.269 80.365zM75.254 83.814c0.713 0.088 2.4-0.417 4.272-1.041C77.578 83.081 75.848 83.406 75.254 83.814zM79.526 82.774c0.11-0.016 0.225-0.034 0.337-0.052 -0.004-0.019-0.009-0.038-0.014-0.057C79.742 82.701 79.632 82.738 79.526 82.774zM75.253 84.427c0.59 0.412 2.318 0.747 4.262 1.063C77.65 84.857 75.967 84.342 75.253 84.427zM79.516 85.49c0.095 0.033 0.191 0.067 0.285 0.098 0.005-0.017 0.009-0.033 0.012-0.05C79.716 85.523 79.615 85.507 79.516 85.49zM74.965 84.97c0.333 0.637 1.708 1.738 3.282 2.924C76.888 86.464 75.638 85.226 74.965 84.97zM78.248 87.892c0.059 0.062 0.12 0.126 0.179 0.189 0.01-0.012 0.019-0.021 0.03-0.032C78.387 87.997 78.315 87.944 78.248 87.892zM74.46 85.317c-0.003 0.719 0.703 2.331 1.547 4.113C75.468 87.533 74.937 85.855 74.46 85.317zM76.007 89.431c0.021 0.075 0.043 0.152 0.063 0.229 0.015-0.006 0.025-0.01 0.039-0.014C76.076 89.574 76.041 89.5 76.007 89.431zM73.851 85.389c-0.336 0.637-0.461 2.39-0.542 4.361C73.713 87.82 74.022 86.087 73.851 85.389zM73.309 89.75c-0.017 0.075-0.031 0.151-0.047 0.228 0.014 0.003 0.025 0.003 0.039 0.005C73.303 89.906 73.307 89.826 73.309 89.75zM73.28 85.169c-0.596 0.407-1.521 1.904-2.508 3.61C72.026 87.259 73.106 85.867 73.28 85.169zM70.772 88.779c-0.053 0.063-0.108 0.13-0.162 0.193 0.013 0.008 0.024 0.014 0.038 0.024C70.688 88.924 70.731 88.851 70.772 88.779zM72.875 84.71c-0.716 0.083-2.231 0.978-3.898 2.029C70.795 85.977 72.395 85.248 72.875 84.71zM68.976 86.741c-0.086 0.036-0.174 0.072-0.263 0.11 0.006 0.013 0.015 0.027 0.023 0.04C68.817 86.842 68.897 86.791 68.976 86.741zM72.728 84.113c-0.671-0.257-2.429-0.168-4.395-0.011C70.297 84.27 72.055 84.367 72.728 84.113zM68.333 84.102c-0.107-0.01-0.217-0.02-0.323-0.029 0 0.019-0.002 0.038 0 0.056C68.119 84.119 68.228 84.11 68.333 84.102zM72.875 83.519c-0.473-0.539-2.069-1.277-3.881-2.051C70.653 82.528 72.163 83.432 72.875 83.519zM68.994 81.468c-0.104-0.067-0.209-0.134-0.315-0.201 -0.009 0.019-0.019 0.038-0.029 0.055C68.766 81.371 68.882 81.419 68.994 81.468zM73.284 83.061c-0.169-0.698-1.241-2.094-2.485-3.623C71.775 81.15 72.692 82.651 73.284 83.061zM70.799 79.438c-0.067-0.115-0.132-0.232-0.199-0.349 -0.019 0.013-0.039 0.026-0.056 0.039C70.628 79.231 70.716 79.335 70.799 79.438z" fill="url(#SvgjsRadialGradient3402)" opacity="0.7"></path><path id="SvgjsPath3405" d="M74.886 78.086c-0.024-0.003-0.047-0.007-0.07-0.01 -0.007 0.138-0.016 0.277-0.024 0.414C74.822 78.356 74.855 78.22 74.886 78.086zM74.791 78.489c-0.442 1.922-0.787 3.649-0.629 4.35C74.511 82.211 74.671 80.459 74.791 78.489zM74.161 82.839c-0.084 0.15-0.176 0.243-0.283 0.254 -0.106 0.01-0.216-0.064-0.327-0.195 -0.004 0.171-0.042 0.297-0.133 0.356 -0.09 0.059-0.221 0.045-0.38-0.021 0.076 0.155 0.101 0.285 0.049 0.378 -0.053 0.094-0.176 0.142-0.345 0.158 0.137 0.101 0.22 0.204 0.217 0.312 -0.002 0.107-0.089 0.207-0.231 0.302 0.169 0.024 0.29 0.079 0.337 0.174 0.048 0.096 0.018 0.225-0.064 0.375 0.161-0.057 0.292-0.065 0.379-0.002 0.087 0.063 0.12 0.19 0.116 0.363 0.117-0.125 0.229-0.196 0.337-0.179 0.105 0.014 0.194 0.113 0.27 0.268 0.045-0.167 0.113-0.279 0.216-0.315 0.101-0.036 0.225 0.01 0.363 0.111 -0.036-0.167-0.029-0.299 0.044-0.378 0.073-0.079 0.205-0.096 0.376-0.072 -0.111-0.132-0.168-0.251-0.138-0.355 0.028-0.104 0.136-0.18 0.299-0.237 -0.16-0.064-0.263-0.145-0.288-0.25 -0.023-0.105 0.037-0.223 0.154-0.349 -0.172 0.016-0.301-0.006-0.37-0.088 -0.07-0.082-0.072-0.214-0.028-0.379 -0.142 0.094-0.268 0.134-0.367 0.093C74.261 83.122 74.199 83.007 74.161 82.839zM74.729 83.07c0.601-0.394 1.557-1.871 2.578-3.558C76.022 81.007 74.916 82.375 74.729 83.07zM77.307 79.511c0.089-0.102 0.18-0.206 0.268-0.311 -0.019-0.013-0.036-0.028-0.055-0.042C77.449 79.277 77.378 79.396 77.307 79.511zM75.127 83.538c0.715-0.07 2.25-0.934 3.937-1.953C77.231 82.312 75.614 83.01 75.127 83.538zM79.063 81.584c0.117-0.046 0.235-0.092 0.354-0.138 -0.01-0.021-0.021-0.04-0.028-0.059C79.281 81.453 79.173 81.52 79.063 81.584zM75.259 84.137c0.666 0.27 2.426 0.218 4.395 0.101C77.693 84.03 75.938 83.896 75.259 84.137zM79.654 84.237c0.112 0.013 0.226 0.025 0.339 0.037 0-0.02 0.001-0.039 0.002-0.058C79.881 84.223 79.766 84.23 79.654 84.237zM75.1 84.729c0.462 0.551 2.046 1.321 3.842 2.129C77.303 85.763 75.811 84.831 75.1 84.729zM78.941 86.858c0.083 0.057 0.167 0.114 0.25 0.168 0.009-0.015 0.017-0.03 0.025-0.045C79.126 86.942 79.032 86.9 78.941 86.858zM74.68 85.179c0.156 0.701 1.2 2.12 2.414 3.674C76.151 87.119 75.264 85.599 74.68 85.179zM77.094 88.85c0.042 0.075 0.083 0.153 0.125 0.229 0.012-0.009 0.024-0.016 0.037-0.024C77.202 88.987 77.147 88.917 77.094 88.85zM74.103 85.383c-0.188 0.693 0.076 2.433 0.43 4.373C74.502 87.784 74.424 86.026 74.103 85.383zM74.532 89.756c0.001 0.078 0.003 0.158 0.003 0.238 0.014-0.002 0.027-0.004 0.041-0.004C74.562 89.913 74.547 89.833 74.532 89.756zM73.496 85.294c-0.49 0.528-1.064 2.189-1.652 4.072C72.733 87.607 73.481 86.013 73.496 85.294zM71.843 89.366c-0.035 0.068-0.07 0.138-0.104 0.208 0.012 0.006 0.023 0.009 0.036 0.015C71.797 89.516 71.821 89.439 71.843 89.366zM73 84.934c-0.68 0.239-1.962 1.446-3.357 2.838C71.25 86.628 72.652 85.563 73 84.934zM69.644 87.772c-0.067 0.047-0.137 0.098-0.205 0.145 0.01 0.011 0.02 0.02 0.029 0.032C69.525 87.89 69.585 87.832 69.644 87.772zM72.728 84.385c-0.713-0.104-2.407 0.368-4.291 0.952C70.392 85.071 72.125 84.781 72.728 84.385zM68.437 85.339c-0.092 0.013-0.187 0.024-0.283 0.039 0.003 0.015 0.008 0.03 0.013 0.044C68.258 85.396 68.348 85.366 68.437 85.339zM72.741 83.772c-0.582-0.423-2.303-0.792-4.242-1.149C70.353 83.294 72.025 83.843 72.741 83.772zM68.499 82.623c-0.101-0.037-0.205-0.075-0.305-0.112 -0.005 0.019-0.011 0.037-0.015 0.054C68.288 82.584 68.395 82.604 68.499 82.623zM73.038 83.235c-0.318-0.643-1.668-1.769-3.219-2.986C71.147 81.704 72.372 82.968 73.038 83.235zM69.818 80.25c-0.083-0.091-0.167-0.183-0.251-0.275 -0.014 0.016-0.029 0.031-0.042 0.046C69.624 80.097 69.723 80.173 69.818 80.25zM73.551 82.899c0.017-0.718-0.656-2.344-1.464-4.142C72.587 80.663 73.085 82.35 73.551 82.899zM72.087 78.757c-0.034-0.128-0.067-0.259-0.101-0.389 -0.021 0.007-0.043 0.015-0.063 0.023C71.977 78.513 72.033 78.636 72.087 78.757z" fill="url(#SvgjsRadialGradient3406)" opacity="0.4"></path><path id="SvgjsPath3409" d="M76.354 84c0 1.3-1.053 2.353-2.353 2.353 -1.299 0-2.354-1.053-2.354-2.353 0-1.299 1.055-2.354 2.354-2.354C75.301 81.646 76.354 82.7 76.354 84z" fill="#3e4442" stroke-width="none" opacity="1" stroke="none"></path><path id="SvgjsPath3410" d="M76.354 84c0 1.3-1.053 2.353-2.353 2.353 -1.299 0-2.354-1.053-2.354-2.353 0-1.299 1.055-2.354 2.354-2.354C75.301 81.646 76.354 82.7 76.354 84z" fill="#000000" stroke-width="none" opacity="0.9"></path><path id="SvgjsPath3411" d="M70.717 86.748c0.449-0.302 1.059-0.18 1.36 0.268 0.301 0.449 0.182 1.059-0.268 1.36 -0.45 0.303-1.059 0.183-1.36-0.267C70.148 87.66 70.268 87.049 70.717 86.748L70.717 86.748z" fill="url(#SvgjsLinearGradient3412)" opacity="0.5"></path><path id="SvgjsPath3415" d="M75.86 83.672c-0.251 0.374-0.969 0.331-1.606-0.096 -0.638-0.427-0.95-1.078-0.7-1.451l0-0.001c0.25-0.374 0.969-0.331 1.605 0.097C75.798 82.647 76.11 83.297 75.86 83.672 75.86 83.672 75.86 83.672 75.86 83.672z" fill="url(#SvgjsLinearGradient3416)" opacity="0.5"></path><path id="SvgjsPath3419" d="M78.716 82.673c-0.568 0.873-2.036 0.925-3.275 0.117 -1.24-0.808-1.784-2.17-1.215-3.043 0.568-0.872 2.036-0.924 3.275-0.117C78.74 80.439 79.284 81.802 78.716 82.673L78.716 82.673z" fill="url(#SvgjsLinearGradient3420)" opacity="0.75"></path></g></g></g><g id="svga-group-eyesfront-left"><path id="SvgjsPath3471" d="M55.112 83.583c3.224 11.315 7.475 23.313 17.685 23.669s22.135-7.239 22.29-22.238c0.173-16.767-10.474-23.381-20.684-23.737S50.307 66.714 55.112 83.583zM60.875 83.09c-0.252-1.101-0.325-1.417-0.311-2.473 2.027-1.21 4.04-1.547 5.851-1.905 2.123-0.418 6.853-0.845 10.317-0.329 4.587 0.679 7.931 3.488 10.773 7.94 0.004 0.005 0.013 0.004 0.018 0.008 0.007 0.027 0.021 0.053 0.026 0.08 0.255 1.007-0.816 1.819-2.155 2.438 -4.771 0.609-9.359 1.489-14.194 0.87C61.519 88.478 61.345 84.21 60.875 83.09z" fill="#ffd0bc" stroke-width="none" opacity="1"></path><path id="SvgjsPath3472" d="M74.225 95.171c9.256 1.401 17.847-3.01 19.186-9.859 1.34-6.849-5.072-13.537-14.329-14.94 -9.258-1.399-17.845 3.012-19.185 9.862C58.557 87.082 64.967 93.766 74.225 95.171zM60.563 80.617c2.125-1.141 4.04-1.547 5.851-1.905 2.123-0.418 6.853-0.845 10.317-0.329 4.587 0.679 7.931 3.488 10.773 7.94 0.004 0.005 0.013 0.004 0.018 0.008 0.007 0.027 0.021 0.053 0.026 0.08 0.255 1.007-0.816 1.819-2.155 2.438 -4.771 0.609-9.359 1.489-14.194 0.87 -9.681-1.241-9.855-5.509-10.326-6.629C60.622 81.989 60.55 81.672 60.563 80.617z" fill="url(#SvgjsRadialGradient3473)" opacity="1"></path><path id="SvgjsPath3477" d="M60.875 83.09c-0.252-1.101-0.325-1.417-0.311-2.473 2.092-1.175 4.04-1.547 5.851-1.905 2.123-0.418 6.853-0.845 10.317-0.329 4.587 0.679 7.931 3.488 10.773 7.94 0.004 0.005 0.013 0.004 0.018 0.008 0.007 0.027 0.021 0.053 0.026 0.08 0.255 1.007-0.816 1.819-2.155 2.438 -4.771 0.609-9.359 1.489-14.194 0.87C61.519 88.478 61.345 84.21 60.875 83.09z" fill="url(#SvgjsRadialGradient3478)" opacity="1"></path><path id="SvgjsPath3481" d="M76.327 75.748c3.294 0.539 6.505 2.054 9.48 3.945 0.637 0.404 1.366 0.865 2.521 1.451 -0.828-0.188-1.594-0.617-2.309-1.011 0.736 0.698 1.422 1.529 1.982 2.334 -2.521-3.159-7.297-5.538-11.36-6.349 -3.902-0.779-10.989-0.264-16.251 2.042C65.208 75.449 72.237 75.08 76.327 75.748z" fill="#d17f5b" stroke-width="none" opacity="1"></path><path id="SvgjsPath3482" d="M87.508 86.277c-2.847-4.34-6.193-7.082-10.781-7.747 -4.833-0.705-11.271-0.221-15.034 1.843 -0.308 0.169-1.607 1.249-1.401 0.117 0.874-1.167 4.322-2.523 5.993-2.928C85.03 73.019 88.582 87.854 87.508 86.277zM60.646 82.841c-0.716 2.063 0.861 6.654 10.145 7.503 6.595 0.602 15.767-1.75 14.634-1.613 -4.779 0.589-9.375 1.449-14.219 0.839C60.224 88.19 61.468 83.023 60.646 82.841z" fill="#000000" stroke-width="none" opacity="1"></path></g></g><g id="svga-group-eyes-right" transform="matrix(0.89999969 0 0 0.89999969 12.642888924279475 8.426526251850106) translate(0 2.0000001000000003)"><g id="svga-group-eyesback-right"><path id="SvgjsPath3454" d="M122.867 78.383c-4.586 0.679-7.931 3.488-10.773 7.94 -0.004 0.005-0.012 0.004-0.018 0.008 -0.006 0.027-0.02 0.053-0.025 0.08 -0.256 1.007 0.815 1.819 2.154 2.438 4.771 0.609 9.359 1.489 14.194 0.87 9.681-1.241 9.855-5.509 10.325-6.629 0.253-1.101 0.325-1.417 0.312-2.473 -2.331-1.366-4.043-1.647-5.854-2.005C131.059 78.194 126.332 77.868 122.867 78.383z" fill="url(#SvgjsRadialGradient3455)" opacity="1"></path></g><g id="svga-group-eyesiriswrapper-right" transform="translate(-0.25 0)"><g id="svga-group-eyesiriscontrol-right" ><g id="svga-group-eyesiris-right" ><path id="SvgjsPath3423" d="M132 84c0 3.313-2.687 6-5.999 6 -3.313 0-6.001-2.687-6.001-6l0 0c0-3.314 2.688-6 6.001-6C129.313 77.999 132 80.686 132 84L132 84z" fill="#3e4442" stroke-width="none" opacity="1" stroke="none"></path><path id="SvgjsPath3424" d="M125.328 78.066c-0.023 0.003-0.047 0.006-0.071 0.009 0.029 0.135 0.058 0.271 0.085 0.406C125.336 78.344 125.333 78.204 125.328 78.066zM125.341 78.48c0.069 1.972 0.185 3.729 0.518 4.364C126.033 82.148 125.735 80.414 125.341 78.48zM125.858 82.845c-0.042 0.167-0.108 0.281-0.207 0.319 -0.101 0.038-0.226-0.006-0.367-0.103 0.04 0.167 0.036 0.297-0.036 0.378 -0.072 0.081-0.201 0.101-0.372 0.078 0.112 0.13 0.171 0.249 0.146 0.353 -0.028 0.104-0.134 0.182-0.293 0.242 0.158 0.063 0.265 0.141 0.29 0.245 0.025 0.104-0.032 0.223-0.145 0.352 0.17-0.021 0.3 0.001 0.37 0.082 0.071 0.081 0.075 0.212 0.035 0.379 0.141-0.097 0.266-0.139 0.365-0.1 0.102 0.038 0.166 0.152 0.206 0.32 0.08-0.152 0.172-0.249 0.279-0.26 0.105-0.014 0.217 0.059 0.329 0.188 0.002-0.172 0.037-0.299 0.128-0.36 0.087-0.061 0.219-0.049 0.379 0.013 -0.078-0.152-0.104-0.281-0.056-0.377 0.051-0.095 0.174-0.146 0.345-0.166 -0.141-0.099-0.228-0.2-0.225-0.308 -0.001-0.108 0.084-0.209 0.227-0.306 -0.171-0.021-0.291-0.072-0.342-0.167 -0.05-0.095-0.022-0.225 0.057-0.377 -0.161 0.06-0.291 0.072-0.38 0.011s-0.124-0.188-0.125-0.36c-0.111 0.128-0.224 0.199-0.33 0.185C126.029 83.092 125.938 82.998 125.858 82.845zM126.466 82.92c0.479-0.535 1.021-2.209 1.569-4.104C127.182 80.593 126.468 82.202 126.466 82.92zM128.035 78.816c0.06-0.122 0.121-0.246 0.179-0.37 -0.021-0.007-0.042-0.017-0.063-0.026C128.112 78.553 128.074 78.686 128.035 78.816zM126.972 83.27c0.673-0.252 1.932-1.483 3.298-2.905C128.688 81.541 127.307 82.634 126.972 83.27zM130.27 80.365c0.1-0.075 0.202-0.15 0.305-0.225 -0.015-0.018-0.03-0.033-0.042-0.049C130.445 80.181 130.358 80.274 130.27 80.365zM127.255 83.814c0.713 0.088 2.399-0.417 4.271-1.041C129.578 83.081 127.848 83.406 127.255 83.814zM131.526 82.774c0.11-0.016 0.225-0.034 0.337-0.052 -0.005-0.019-0.009-0.038-0.014-0.057C131.742 82.701 131.632 82.738 131.526 82.774zM127.253 84.427c0.591 0.412 2.318 0.747 4.263 1.063C129.65 84.857 127.967 84.342 127.253 84.427zM131.516 85.49c0.095 0.033 0.19 0.067 0.285 0.098 0.005-0.017 0.009-0.033 0.013-0.05C131.716 85.523 131.614 85.507 131.516 85.49zM126.965 84.97c0.332 0.637 1.708 1.738 3.282 2.924C128.889 86.464 127.638 85.226 126.965 84.97zM130.248 87.892c0.059 0.062 0.119 0.126 0.178 0.189 0.01-0.012 0.02-0.021 0.031-0.032C130.387 87.997 130.315 87.944 130.248 87.892zM126.461 85.317c-0.003 0.719 0.702 2.331 1.547 4.113C127.468 87.533 126.937 85.855 126.461 85.317zM128.008 89.431c0.021 0.075 0.043 0.152 0.063 0.229 0.015-0.006 0.026-0.01 0.039-0.014C128.076 89.574 128.041 89.5 128.008 89.431zM125.851 85.389c-0.336 0.637-0.461 2.39-0.542 4.361C125.713 87.82 126.022 86.087 125.851 85.389zM125.309 89.75c-0.017 0.075-0.031 0.151-0.047 0.228 0.014 0.003 0.024 0.003 0.039 0.005C125.303 89.906 125.307 89.826 125.309 89.75zM125.279 85.169c-0.596 0.407-1.521 1.904-2.508 3.61C124.026 87.259 125.105 85.867 125.279 85.169zM122.771 88.779c-0.052 0.063-0.107 0.13-0.161 0.193 0.013 0.008 0.024 0.014 0.037 0.024C122.688 88.924 122.731 88.851 122.771 88.779zM124.874 84.71c-0.716 0.083-2.23 0.978-3.897 2.029C122.795 85.977 124.395 85.248 124.874 84.71zM120.977 86.741c-0.087 0.036-0.175 0.072-0.263 0.11 0.006 0.013 0.014 0.027 0.023 0.04C120.817 86.842 120.897 86.791 120.977 86.741zM124.729 84.113c-0.672-0.257-2.43-0.168-4.396-0.011C122.298 84.27 124.055 84.367 124.729 84.113zM120.333 84.102c-0.106-0.01-0.217-0.02-0.322-0.029 -0.001 0.019-0.003 0.038-0.001 0.056C120.119 84.119 120.228 84.11 120.333 84.102zM124.876 83.519c-0.474-0.539-2.069-1.277-3.882-2.051C122.653 82.528 124.163 83.432 124.876 83.519zM120.994 81.468c-0.104-0.067-0.21-0.134-0.315-0.201 -0.009 0.019-0.019 0.038-0.028 0.055C120.766 81.371 120.883 81.419 120.994 81.468zM125.284 83.061c-0.169-0.698-1.241-2.094-2.485-3.623C123.775 81.15 124.692 82.651 125.284 83.061zM122.799 79.438c-0.067-0.115-0.133-0.232-0.198-0.349 -0.019 0.013-0.039 0.026-0.057 0.039C122.629 79.231 122.716 79.335 122.799 79.438z" fill="url(#SvgjsRadialGradient3425)" opacity="0.7"></path><path id="SvgjsPath3428" d="M126.886 78.086c-0.024-0.003-0.047-0.007-0.07-0.01 -0.008 0.138-0.016 0.277-0.024 0.414C126.821 78.356 126.854 78.22 126.886 78.086zM126.791 78.489c-0.443 1.922-0.787 3.649-0.63 4.35C126.511 82.211 126.671 80.459 126.791 78.489zM126.161 82.839c-0.084 0.15-0.177 0.243-0.283 0.254 -0.106 0.01-0.216-0.064-0.327-0.195 -0.004 0.171-0.042 0.297-0.133 0.356 -0.09 0.059-0.221 0.045-0.38-0.021 0.075 0.155 0.101 0.285 0.049 0.378 -0.054 0.094-0.176 0.142-0.346 0.158 0.138 0.101 0.22 0.204 0.217 0.312 -0.002 0.107-0.089 0.207-0.23 0.302 0.17 0.024 0.289 0.079 0.337 0.174 0.048 0.096 0.018 0.225-0.064 0.375 0.162-0.057 0.293-0.065 0.38-0.002 0.087 0.063 0.12 0.19 0.115 0.363 0.117-0.125 0.229-0.196 0.337-0.179 0.105 0.014 0.194 0.113 0.27 0.268 0.046-0.167 0.113-0.279 0.216-0.315 0.101-0.036 0.226 0.01 0.363 0.111 -0.035-0.167-0.028-0.299 0.045-0.378 0.072-0.079 0.204-0.096 0.375-0.072 -0.11-0.132-0.168-0.251-0.138-0.355 0.027-0.104 0.136-0.18 0.299-0.237 -0.159-0.064-0.263-0.145-0.288-0.25 -0.022-0.105 0.038-0.223 0.154-0.349 -0.172 0.016-0.302-0.006-0.37-0.088 -0.07-0.082-0.072-0.214-0.027-0.379 -0.143 0.094-0.269 0.134-0.368 0.093C126.262 83.122 126.198 83.007 126.161 82.839zM126.729 83.07c0.601-0.394 1.557-1.871 2.578-3.558C128.022 81.007 126.916 82.375 126.729 83.07zM129.307 79.511c0.089-0.102 0.18-0.206 0.269-0.311 -0.02-0.013-0.037-0.028-0.056-0.042C129.449 79.277 129.378 79.396 129.307 79.511zM127.127 83.538c0.715-0.07 2.249-0.934 3.937-1.953C129.231 82.312 127.614 83.01 127.127 83.538zM131.063 81.584c0.116-0.046 0.234-0.092 0.354-0.138 -0.01-0.021-0.021-0.04-0.028-0.059C131.281 81.453 131.173 81.52 131.063 81.584zM127.259 84.137c0.666 0.27 2.426 0.218 4.396 0.101C129.692 84.03 127.938 83.896 127.259 84.137zM131.654 84.237c0.111 0.013 0.226 0.025 0.339 0.037 0.001-0.02 0.001-0.039 0.002-0.058C131.882 84.223 131.766 84.23 131.654 84.237zM127.1 84.729c0.463 0.551 2.046 1.321 3.842 2.129C129.303 85.763 127.811 84.831 127.1 84.729zM130.941 86.858c0.082 0.057 0.167 0.114 0.25 0.168 0.009-0.015 0.018-0.03 0.024-0.045C131.126 86.942 131.032 86.9 130.941 86.858zM126.681 85.179c0.155 0.701 1.199 2.12 2.413 3.674C128.151 87.119 127.265 85.599 126.681 85.179zM129.095 88.85c0.041 0.075 0.082 0.153 0.124 0.229 0.012-0.009 0.023-0.016 0.037-0.024C129.202 88.987 129.146 88.917 129.095 88.85zM126.103 85.383c-0.188 0.693 0.076 2.433 0.43 4.373C126.502 87.784 126.424 86.026 126.103 85.383zM126.532 89.756c0.001 0.078 0.003 0.158 0.003 0.238 0.015-0.002 0.026-0.004 0.04-0.004C126.562 89.913 126.547 89.833 126.532 89.756zM125.495 85.294c-0.489 0.528-1.064 2.189-1.652 4.072C124.733 87.607 125.48 86.013 125.495 85.294zM123.843 89.366c-0.035 0.068-0.069 0.138-0.104 0.208 0.012 0.006 0.022 0.009 0.035 0.015C123.797 89.516 123.821 89.439 123.843 89.366zM125 84.934c-0.68 0.239-1.961 1.446-3.356 2.838C123.25 86.628 124.652 85.563 125 84.934zM121.644 87.772c-0.067 0.047-0.138 0.098-0.205 0.145 0.01 0.011 0.02 0.02 0.029 0.032C121.525 87.89 121.586 87.832 121.644 87.772zM124.728 84.385c-0.713-0.104-2.406 0.368-4.29 0.952C122.392 85.071 124.126 84.781 124.728 84.385zM120.438 85.339c-0.093 0.013-0.188 0.024-0.283 0.039 0.004 0.015 0.008 0.03 0.013 0.044C120.258 85.396 120.348 85.366 120.438 85.339zM124.741 83.772c-0.582-0.423-2.303-0.792-4.242-1.149C122.353 83.294 124.025 83.843 124.741 83.772zM120.499 82.623c-0.101-0.037-0.205-0.075-0.305-0.112 -0.006 0.019-0.011 0.037-0.015 0.054C120.287 82.584 120.395 82.604 120.499 82.623zM125.038 83.235c-0.318-0.643-1.669-1.769-3.22-2.986C123.147 81.704 124.372 82.968 125.038 83.235zM121.818 80.25c-0.083-0.091-0.167-0.183-0.251-0.275 -0.015 0.016-0.028 0.031-0.043 0.046C121.623 80.097 121.724 80.173 121.818 80.25zM125.551 82.899c0.017-0.718-0.656-2.344-1.464-4.142C124.588 80.663 125.085 82.35 125.551 82.899zM124.087 78.757c-0.034-0.128-0.067-0.259-0.102-0.389 -0.021 0.007-0.043 0.015-0.063 0.023C123.977 78.513 124.033 78.636 124.087 78.757z" fill="url(#SvgjsRadialGradient3429)" opacity="0.4"></path><path id="SvgjsPath3432" d="M128.354 84c0 1.3-1.054 2.353-2.353 2.353 -1.3 0-2.354-1.053-2.354-2.353 0-1.299 1.055-2.354 2.354-2.354C127.302 81.646 128.354 82.7 128.354 84z" fill="#3e4442" stroke-width="none" opacity="1" stroke="none"></path><path id="SvgjsPath3433" d="M128.354 84c0 1.3-1.054 2.353-2.353 2.353 -1.3 0-2.354-1.053-2.354-2.353 0-1.299 1.055-2.354 2.354-2.354C127.302 81.646 128.354 82.7 128.354 84z" fill="#000000" stroke-width="none" opacity="0.9"></path><path id="SvgjsPath3434" d="M122.718 86.748c0.448-0.302 1.059-0.18 1.359 0.268 0.302 0.449 0.183 1.059-0.268 1.36 -0.45 0.303-1.059 0.183-1.359-0.267C122.148 87.66 122.268 87.049 122.718 86.748L122.718 86.748z" fill="url(#SvgjsLinearGradient3435)" opacity="0.5"></path><path id="SvgjsPath3438" d="M127.859 83.672c-0.251 0.374-0.969 0.331-1.605-0.096 -0.638-0.427-0.95-1.078-0.7-1.451l0.001-0.001c0.25-0.374 0.969-0.331 1.605 0.097C127.798 82.647 128.11 83.297 127.859 83.672 127.859 83.672 127.859 83.672 127.859 83.672z" fill="url(#SvgjsLinearGradient3439)" opacity="0.5"></path><path id="SvgjsPath3442" d="M130.717 82.673c-0.569 0.873-2.036 0.925-3.276 0.117 -1.239-0.808-1.784-2.17-1.215-3.043 0.568-0.872 2.035-0.924 3.275-0.117C130.74 80.439 131.284 81.802 130.717 82.673L130.717 82.673z" fill="url(#SvgjsLinearGradient3443)" opacity="0.75"></path></g></g></g><g id="svga-group-eyesfront-right"><path id="SvgjsPath3492" d="M125.197 61.277c-10.211 0.356-20.857 6.97-20.685 23.737 0.154 15 12.079 22.595 22.29 22.238 10.21-0.356 16.187-17.323 17.685-23.669C148.517 66.512 135.407 60.921 125.197 61.277zM128.399 89.719c-4.835 0.619-9.423-0.261-14.194-0.87 -1.339-0.618-2.41-1.43-2.154-2.438 0.006-0.027 0.02-0.053 0.025-0.08 0.006-0.004 0.014-0.003 0.018-0.008 2.843-4.452 6.188-7.261 10.773-7.94 3.465-0.516 8.195-0.089 10.318 0.329 1.811 0.357 3.824 0.694 5.851 1.905 0.014 1.055-0.059 1.372-0.312 2.473C138.255 84.21 138.08 88.478 128.399 89.719z" fill="#ffd0bc" stroke-width="none" opacity="1"></path><path id="SvgjsPath3493" d="M139.703 80.234c-1.34-6.85-9.928-11.261-19.186-9.862 -9.257 1.403-15.669 8.091-14.328 14.94 1.339 6.849 9.93 11.26 19.186 9.859C134.633 93.766 141.043 87.082 139.703 80.234zM138.725 83.09c-0.47 1.121-0.645 5.388-10.325 6.629 -4.835 0.619-9.423-0.261-14.194-0.87 -1.339-0.618-2.41-1.43-2.154-2.438 0.006-0.027 0.02-0.053 0.025-0.08 0.006-0.004 0.014-0.003 0.018-0.008 2.843-4.452 6.188-7.261 10.773-7.94 3.465-0.516 8.195-0.089 10.318 0.329 1.811 0.357 3.727 0.764 5.851 1.905C139.05 81.672 138.978 81.989 138.725 83.09z" fill="url(#SvgjsRadialGradient3494)" opacity="1"></path><path id="SvgjsPath3498" d="M138.725 83.09c0.253-1.101 0.325-1.417 0.312-2.473 -2.092-1.175-4.04-1.547-5.851-1.905 -2.123-0.418-6.854-0.845-10.318-0.329 -4.586 0.679-7.931 3.488-10.773 7.94 -0.004 0.005-0.012 0.004-0.018 0.008 -0.006 0.027-0.02 0.053-0.025 0.08 -0.256 1.007 0.815 1.819 2.154 2.438 4.771 0.609 9.359 1.489 14.194 0.87C138.08 88.478 138.255 84.21 138.725 83.09z" fill="url(#SvgjsRadialGradient3499)" opacity="1"></path><path id="SvgjsPath3502" d="M123.273 75.748c-3.295 0.539-6.506 2.054-9.48 3.945 -0.637 0.404-1.367 0.865-2.521 1.451 0.828-0.188 1.594-0.617 2.309-1.011 -0.736 0.698-1.422 1.529-1.982 2.334 2.521-3.159 7.297-5.538 11.359-6.349 3.902-0.779 10.989-0.264 16.252 2.042C134.391 75.449 127.362 75.08 123.273 75.748z" fill="#d17f5b" stroke-width="none" opacity="1"></path><path id="SvgjsPath3503" d="M133.314 77.563c1.672 0.405 5.119 1.761 5.994 2.928 0.205 1.132-1.094 0.052-1.402-0.117 -3.764-2.064-10.201-2.548-15.033-1.843 -4.588 0.665-7.936 3.407-10.781 7.747C111.018 87.854 114.57 73.019 133.314 77.563zM128.395 89.57c-4.844 0.61-9.439-0.25-14.219-0.839 -1.134-0.137 8.038 2.215 14.633 1.613 9.284-0.849 10.861-5.44 10.145-7.503C138.131 83.023 139.376 88.19 128.395 89.57z" fill="#000000" stroke-width="none" opacity="1"></path></g></g><g id="svga-group-facehighlight-single" ><path id="SvgjsPath2885" d="M141 113.974c0.035 22.622-18.292 40.994-40.938 41.025 -22.642 0.037-41.028-18.273-41.063-40.9 -0.035-22.62 18.292-41.064 40.937-41.1C122.579 72.964 140.967 91.349 141 113.974z" fill="url(#SvgjsRadialGradient2886)" opacity="1"></path><path id="SvgjsPath2889" d="M137.5 53.999c0 20.711-16.789 37.5-37.499 37.5 -20.711 0-37.501-16.789-37.501-37.5s16.79-37.5 37.501-37.5C120.711 16.499 137.5 33.288 137.5 53.999z" fill="url(#SvgjsRadialGradient2890)" opacity="1"></path></g><g id="svga-group-eyebrows-left" transform="translate(-2.0000002 4.0000003)"><path id="SvgjsPath3507" d="M54.205 76c21.295-17.8 43.536-4.503 36.719-1.268C88.252 76 78.133 64.999 54.205 76z" fill="#505050" stroke-width="none" opacity="1"></path></g><g id="svga-group-eyebrows-right" transform="translate(2.0000002 4.0000003)"><path id="SvgjsPath3508" d="M145.795 76c-21.295-17.8-43.536-4.503-36.719-1.268C111.748 76 121.867 64.999 145.795 76z" fill="#505050" stroke-width="none" opacity="1"></path></g><g id="svga-group-nose-single" transform="translate(0 -2.0000003000000004)"><path id="SvgjsPath3521" d="M109.895 118.829c0.19-0.512 0.307-1.047 0.396-1.584 0.033-0.198-0.229-0.929-0.252-0.697 -0.101 0.941-0.612 2.262-1.6 2.551 -1.133 0.329-1.783-0.056-1.886-1.172 -0.104-1.125 0.297-2.619-0.109-3.665 -0.264-0.676-0.856-1.226-1.464-1.606 0.458 2.04 0.823 4.704-1.128 6.164 0.167 0.199 0.319 0.293 0.467 0.333 -0.153 0.026-0.308 0.059-0.467 0.13 -0.771 0.352-3.586 1.015-4.404 0.657 -0.193-0.085-0.622-0.152-1.16-0.204 -0.362-0.315-1.023-1.138-1.332-1.328 -1.215-0.751-1.851-2.069-1.926-3.472 -0.163-2.955 1.373-6.245 4.861-7.528 -3.578-1.004-4.064 4.863-6.408 6.172 -1.402 0.783-2.741 1.479-2.716 3.229 0.008 0.579 0.078 1.419 0.34 2.122 -0.421-0.591-0.699-1.125-0.739-0.653 -0.342 3.979 3.522 2.884 5.042 3.158 1.255 0.227 3.412 0.544 4.459 0.563 1.137 0.02 2.858-0.377 3.981-0.563 1.087-0.181 2.985 0.037 4.381-0.59 0.824-0.371 2.006-0.612 2.006-2.211l-0.402 0.326C109.855 118.916 109.878 118.874 109.895 118.829z" fill="#f0b399" stroke-width="none" opacity="1"></path><path id="SvgjsPath3522" d="M90.642 116.322c0.15-0.48 0.371-0.961 0.73-1.324 -0.631 1.095-0.719 2.661-0.152 3.799 0.697 1.399 1.94 1.104 3.131 0.563 1.191-0.54 1.188-0.938 2.426-0.526 0.963 0.319 1.737 0.795 2.797 0.793 1.132-0.002 1.977-0.471 3.03-0.798 1.278-0.38 2.357-0.162 3.559 0.378 1.13 0.509 2.426 1.15 3.301-0.117 0.773-1.148 0.69-2.922 0.017-4.092 1.51 1.542 1.145 5.938-1.745 5.384 -0.397-0.08-1.098-0.563-1.451-0.469 -0.64 0.175-1.445 0.007-2.091-0.054 -1.175-0.112-2.195-0.108-3.312 0.174 -0.429 0.1-0.869 0.158-1.309 0.154 -0.525-0.007-1.057-0.268-1.556-0.237 -1.4 0.086-1.984-0.214-3.39-0.124 -1.197 0.077-1.955 1.13-3.142 0.177C90.436 119.125 90.275 117.566 90.642 116.322 90.719 116.078 90.497 116.814 90.642 116.322zM101.211 107.662c0.557 0.115 1.063 0.367 1.531 0.684 -1.391-2.209-4.931-1.408-6.339 0.345C97.843 107.926 99.562 107.296 101.211 107.662 101.478 107.719 100.678 107.543 101.211 107.662z" fill="#d17f5b" stroke-width="none" opacity="1"></path><path id="SvgjsPath3523" d="M93.079 117.678c-0.216-1.586 0.406-3.049-0.995-1.972C91.214 116.375 93.418 120.168 93.079 117.678z" fill="#ffe2d6" stroke-width="none" opacity="1"></path></g><g id="svga-group-beardwrap" ><g id="svga-group-beard-single" ><path id="SvgjsPath3021" d="M100,18.13L100,18.13L100,18.13L100,18.13z" fill="#2a232b" stroke-width="none" opacity="1"></path></g></g><g id="svga-group-mustache-single" ><path id="SvgjsPath3019" d="M100,18.13L100,18.13L100,18.13L100,18.13z" fill="#2a232b" stroke-width="none" opacity="1"></path></g><g id="svga-group-hair-front" ><path id="SvgjsPath3372" d="M164.354 50.741c-0.165-3.292-1.526-8.266-2.485-11.305 -1.113 1.915-1.224 1.915-1.877 2.927 -0.21-1.212-1.637-13.946-6.382-21.2 -0.544 1.912 0.056 4.105-1.088 5.567 -2.565-5.342-6.325-14.564-14.831-20.638 0.87 2.274 0.411 2.914 0.605 3.684 -2.516-3.628-5.512-5.54-10.311-8.295 0 1.687 0.163 2.755 0.163 2.755 -1.758-2.027-5.78-7.704-10.939-10.969 0.243 0.876-0.251 2.776-0.075 3.715 -1.69-3.599-6.87-10.572-11.955-9.723 -1.45-1.439-2.657-3.886-3.964-5.516 -0.82 4.329-7.635 13.833-14.676 18.103 0.232-1.79-0.102-3.37-0.543-5.19 -1.27 2.61-5.393 7.668-8.387 8.851C77.91 2.195 77.677-0.3 77.677-0.3c-1.589 2.085-2.963 3.242-5.06 5.084 0.026-1.172 0.624-3.642 0.979-4.879 -3.298 1.462-6.569 5.342-8.968 8.154 -0.261-1.604 0.271-4.964 0.813-5.703C53.647 10.157 48.067 16.424 42.691 31.51c-0.351-0.752-0.593-1.671-0.707-4.166 -6.725 10.937-10.54 18.516-3.459 45.811 -1.445-0.857-2.233-1.482-3.38-2.611 1.693 11.378 4.166 15.151 12.679 24.861 4.188-4.89 1.939-13.492 1.253-17.578 0.099-6.172 1.819-5.103 2.072-7.899 0.114-1.255 0.776-3.367 0.659-4.622 -0.472-5.024 1.132-13.964 3.475-19.847 3.592-5.277 7.713-8.823 13.048-12.029 8.422-1.67 16.253 1.805 18.647 2.425 4.326 1.12 21.693 1.12 26.021 0 2.995-0.775 11.371-4.294 20.026-1.996 6.533 3.737 10.179 7.242 12.862 14.031 1.712 5.4 2.685 12.117 2.28 16.415 -0.117 1.255 0.449 4.367 0.563 5.623 0.104 1.147 1.568 3.689 1.842 4.807 1.123 4.612-1.238 16.915-1.238 16.915 -0.065 1.727 0.09 3.432 0.646 5.076 6.195-3.866 6.614-6.152 7.502-9.064 0.732-2.409 4.626-11.52 4.744-13.19 -0.79 0.872-2.409 1.954-3.271 2.362 0.708-2.756 3.952-7.96 4.58-10.966C164.64 60.571 164.625 56.232 164.354 50.741z" fill="#3c3636" stroke-width="none" opacity="1" stroke="none"></path><path id="SvgjsPath3373" d="M164.354 50.741c-0.165-3.292-1.526-8.266-2.485-11.305 -1.113 1.915-1.224 1.915-1.877 2.927 -0.21-1.212-1.637-13.946-6.382-21.2 -0.544 1.912 0.056 4.105-1.088 5.567 -2.565-5.342-6.325-14.564-14.831-20.638 0.87 2.274 0.411 2.914 0.605 3.684 -2.516-3.628-5.512-5.54-10.311-8.295 0 1.687 0.163 2.755 0.163 2.755 -1.758-2.027-5.78-7.704-10.939-10.969 0.243 0.876-0.251 2.776-0.075 3.715 -1.69-3.599-6.87-10.572-11.955-9.723 -1.45-1.439-2.657-3.886-3.964-5.516 -0.82 4.329-7.635 13.833-14.676 18.103 0.232-1.79-0.102-3.37-0.543-5.19 -1.27 2.61-5.393 7.668-8.387 8.851C77.91 2.195 77.677-0.3 77.677-0.3c-1.589 2.085-2.963 3.242-5.06 5.084 0.026-1.172 0.624-3.642 0.979-4.879 -3.298 1.462-6.569 5.342-8.968 8.154 -0.261-1.604 0.271-4.964 0.813-5.703C53.647 10.157 48.067 16.424 42.691 31.51c-0.351-0.752-0.593-1.671-0.707-4.166 -6.725 10.937-10.54 18.516-3.459 45.811 -1.445-0.857-2.233-1.482-3.38-2.611 1.646 11.061 4.046 14.951 11.998 24.078C43.336 88.193 38.709 82.69 37 75c2 1 5 3 7 4 -5-14-10-32-3-45 1 4 3.536 8.736 5.536 11.736C42.163 33.861 52 19 59 10c0 5-1 11 1 16 0-7 5-11 8-17 0 4-1 7 1 11 1-5 2-10 5-14 2 4 1 8 3 12 0-6 3-9 4-14 2.203 5.069 4 6 5 10C85 3 100.203 2.069 101.203-8.931 102.203-1.931 104 3 103 11c4-5 6-11 7-18 7 6 5 14 8 21 2-4 2-9 3-14 4 7 8 15 11 23 1-5 2.869-7.264 0-15 7 5 12 14 11 23 1-5 2-10 2-15 1 11 8 21 7 33 2-5 4-10 4-16 0.914 10.055 2.649 20.944-0.112 31.143C157.422 60.349 160 56.819 160 52c3 11-7 20-6 31 0-1.705 2.9-2.685 3.757-4.176 0.081-0.275 0.161-0.549 0.243-0.824 0 0.295-0.095 0.566-0.243 0.824 -1.587 5.382-2.937 10.756-4.976 15.966 3.552-2.768 3.972-4.738 4.7-7.128 0.732-2.409 4.626-11.52 4.744-13.19 -0.79 0.872-2.409 1.954-3.271 2.362 0.708-2.756 3.952-7.96 4.58-10.966C164.64 60.571 164.625 56.232 164.354 50.741z" fill="#4b4b4b" stroke-width="none" opacity="1" stroke="none"></path><path id="SvgjsPath3374" d="M161.665 37.305c-0.379 1.596-0.486 1.958-1.128 3.53 -0.481-5.606-2.956-14.695-7.356-21.02 -0.135 2.162-0.249 3.328-0.582 5.35 -1.185-4.271-6.48-13.985-15.768-20.25 0.117 0.35 0.243 0.7 0.368 1.05v0.01c0.269 0.782 0.497 1.646 0.749 2.51 -3.827-4.758-7.283-5.571-10.618-7.87 0.17 0.983 0.271 1.968 0.281 2.04 -4.046-5.492-7.033-7.687-10.743-9.77 0.037 0.462 0.146 2.427 0.123 3.628 -2.432-5.127-4.641-8.986-11.875-9.698 -0.518-1-2.313-4.095-4.139-5.98 -2.3 8.074-8.614 13.707-14.156 18.47 0-1.865-0.302-3.701-0.718-5.49 -2.252 4.016-3.98 6.186-8.262 9.45 0.077-0.766 0.157-3.07 0.097-4.47 -1.174 1.616-3.048 3.649-5.119 5.41 0 0 1.164-4.899 1.174-4.95 -0.156 0.08-0.313 0.15-0.476 0.25 -0.97 0.244-5.192 2.951-8.911 7.81 0.362-3.423 1.047-4.68 1.29-5.68C54.794 7.997 45.986 17.907 42.5 30.575c-0.183-1.78-0.263-3.29-0.263-3.85 -5.115 6.421-7.534 13.02-7.872 14.68 -2.056 9.273 0.458 24.735 3.51 31.24 -1.917-1.524-0.184 0.004-3.2-2.73 0 4.709 1 8.023 2.725 12.09 2.438 5.747 5.88 9.351 10.424 13.4 -4.686-5.73-11.09-13.702-12.354-24.13 0.847 0.833 1.34 1.163 2.793 2.27h0.01c0 0.01 0 0.01 0 0.01 0.647 0.445 0.262 0.244 1.017 0.67 -7.5-27.167-2.066-37.896 2.511-46.39 0.124 3.95 0.819 5.709 2.144 7.9 -0.678-1.744-0.593-1.174-1.116-3.29 3.622-11.552 12.162-20.972 21.352-28.78 0.241-0.2 0.474-0.39 0.717-0.57 -0.32 0.826-0.824 3.42-0.824 5.01 -2.103 2.984-2.484 5.539-2.676 6.63 0.333-1 0.693-2.642 2.686-5.36v-0.01c2.599-4.016 7.259-7.938 9.27-9.3 -1.309 4.38-1.364 6.104-1.289 9.34 0.189-1.823 0.17-1.918 0.61-4.38 1.673-1.295 3.37-2.965 4.868-4.95 -0.109 2.301 0.029 5.486-1.271 8.33 1.1-1.655 1.532-3.7 1.532-4.7 1.309-0.804 4.459-2.157 8.106-8.4 0.789 5.342 0.201 8.289-0.592 10.43 0.645-1.211 1.512-2.889 1.512-5.79 6.763-4.663 11.506-8.768 14.235-16.83 0.076-0.31 0.156-0.61 0.212-0.91 1.518 2.183 7.604 11.9 6.382 14.49 1.547-1.57-1.223-7.455-2.308-9.47 7.645 1.914 8.36 4.039 13.572 14.82 -0.604-2.008-1.115-3.768-1.461-4.75 0.128-1.828 0.006-2.7-0.091-3.7 5.226 4.036 13.838 13.564 13.838 20.81 0.431-2.713 0.241-5.092-1.939-9.13 -0.271-0.49-0.543-0.97-0.836-1.39 -0.071-0.628-0.337-1.92-0.337-1.92 1.802 1.904 5.755 2.333 10.442 9.38 0.621 0.848 3.49 6.394 4.625 8.37 -2.375-6.62-3.041-7.672-3.878-9.23 -0.4-1.75-0.362-1.621-0.99-3.44 10.538 10.395 14.488 16.94 15.863 31.69 0.243-3.948 0.12-7.996-1.017-11.76 0.323-1.404 0.551-2.975 0.715-4.49 0.695 1.441 3.522 8.543 4.908 15.4 1.206 6.061 1.19 9.764 0.891 13.85 1.025-4.236 1.109-8.009 0.961-9.49 0.363-0.564 0.646-1.233 0.892-1.78 1.945 10.561 4.878 19.245-3.636 37.52 0.972-0.517 2.738-1.491 3.782-2.74 0 0-2.979 7.104-4.577 11.66 -2.787 6.939-2.47 6.195-7.099 9.82 5.116-2.12 6.527-5.081 8.205-9.4 3.162-9.217 2.862-6.158 5.255-15.11 -1.086 1.406-1.966 2.511-3.328 3.68C169.403 59.004 164.447 47.467 161.665 37.305z" fill="#1d1414" stroke-width="none" opacity="1" stroke="none"></path></g><g id="svga-group-glasses-single" transform="translate(0 5.0000004)"><path id="SvgjsPath3504" d="M52.7 78.99c11.69 3.22 28.34-0.15 40.03 7.14 -0.08 0.44-0.16 0.87-0.25 1.31 -0.64 2.91-3.23 4.82-6.36 5.38 -8.44 1.51-22.57 1.32-30.84 0.74 -1.19-0.08-2.16-0.9-2.36-2C52.11 87.2 51.8 83.54 52.7 78.99zM106.69 80.35c0.05 2.48 0.32 4.73 0.83 7.1 0.63 2.91 3.23 4.82 6.36 5.38 8.44 1.51 22.57 1.32 30.84 0.74 1.19-0.08 2.16-0.9 2.36-2 0.31-1.69 0.55-3.28 0.67-4.85 -11.7-8.04-28.85-4.44-40.84-7.71C106.77 79.44 106.68 79.89 106.69 80.35z" fill="#ffffff" stroke-width="none" opacity="0.2"></path><path id="SvgjsPath3505" d="M93.31 80.35c-0.05 2.02-0.24 3.88-0.58 5.78 -11.69-7.3-28.35-3.92-40.03-7.14 0.03-0.12 0.04-0.24 0.07-0.37 0.26-1.24 1.34-2.15 2.68-2.28 12.7-1.18 21.35-1.08 33.89-0.11C91.61 76.42 93.36 78.22 93.31 80.35zM147.24 78.63c-0.26-1.24-1.34-2.15-2.68-2.28 -12.7-1.18-21.35-1.08-33.89-0.11 -1.78 0.14-3.22 1.27-3.75 2.78 11.98 3.27 29.14-0.33 40.84 7.71C147.96 84.13 147.85 81.57 147.24 78.63z" fill="#ffffff" stroke-width="none" opacity="0.4"></path><path id="SvgjsPath3506" d="M153 78.74h-5.22c-0.02-0.07-0.02-0.14-0.04-0.21 -0.3-1.44-1.57-2.52-3.13-2.67 -12.9-1.2-21.6-1.07-33.98-0.11 -0.15 0.01-0.29 0.05-0.43 0.07l0.03-0.03c0 0-0.12 0.03-0.33 0.08 -0.09 0.02-0.19 0.04-0.28 0.06 -1.08 0.24-3.42 0.7-5.37 0.76 -3.91 0.12-4.75 0.11-8.5 0 -1.95-0.06-4.29-0.52-5.37-0.76 -0.09-0.03-0.18-0.04-0.28-0.06 -0.21-0.05-0.33-0.08-0.33-0.08l0.03 0.03c-0.14-0.02-0.28-0.06-0.43-0.07 -12.39-0.96-21.09-1.09-33.98 0.11 -1.56 0.15-2.83 1.23-3.13 2.67 -0.02 0.07-0.02 0.14-0.04 0.21H47v2.92h4.79c-0.17 1.7-0.19 3.33-0.07 4.97h1.06c-0.2-2.54-0.09-5.05 0.51-7.92 0.21-1.02 1.1-1.78 2.21-1.88 6.3-0.59 11.69-0.86 16.98-0.86 4.97 0 9.99 0.22 16.81 0.75 2 0.15 3.53 1.74 3.49 3.61 -0.05 2.2-0.28 4.22-0.69 6.29h1.07c0.39-2.02 0.62-4.02 0.67-6.27 0.01-0.66-0.13-1.28-0.39-1.85 0.33-0.07 0.85-0.16 1.51-0.21 2.51-0.18 8.07-0.14 10.11 0 0.66 0.05 1.19 0.14 1.51 0.21 -0.26 0.57-0.41 1.19-0.39 1.85 0.05 2.25 0.28 4.25 0.67 6.27h1.07c-0.41-2.07-0.64-4.09-0.68-6.29 -0.04-1.87 1.49-3.46 3.49-3.61 6.82-0.53 11.84-0.75 16.81-0.75 5.29 0 10.69 0.27 16.98 0.86 1.11 0.1 2 0.86 2.21 1.88 0.6 2.87 0.71 5.38 0.51 7.92h1.05c0.13-1.64 0.1-3.27-0.07-4.97H153V78.74z" fill="#cdcdcd" stroke-width="none" opacity="1"></path></g></g></g><rect id="SvgjsRect1036" width="200" height="15" x="0" y="185" fill="#ecf0f1" opacity="0.5" style="display:none;"></rect><text id="SvgjsText1037" font-family="&quot;Roboto&quot;, &quot;Helvetica Neue&quot;, Helvetica, Arial, sans-serif" style="font-size:0.84em;font-family:&quot;Roboto&quot;, &quot;Helvetica Neue&quot;, Helvetica, Arial, sans-serif;text-anchor:middle;font-weight:400;display:none;" font-size="0.84em" text-anchor="middle" font-weight="400" fill="#000000" x="100" y="185"><tspan id="SvgjsTspan1038" dy="1.2em" x="100" style="font-size:0.84em;font-family:&quot;Roboto&quot;, &quot;Helvetica Neue&quot;, Helvetica, Arial, sans-serif;text-anchor:middle;font-weight:400;">Created on AvatarMaker.com</tspan></text></g><defs id="SvgjsDefs1001"><radialGradient id="SvgjsRadialGradient2886" cx="100" cy="114" r="41" gradientUnits="userSpaceOnUse" class="svga-on-canvas-facehighlight-gradient-single-0"><stop id="SvgjsStop2887" stop-opacity="0.5" stop-color="#ffe2d6" offset="0" ></stop><stop id="SvgjsStop2888" stop-opacity="0" stop-color="#ffd0bc" offset="0.9" ></stop></radialGradient><radialGradient id="SvgjsRadialGradient2890" cx="100" cy="54" r="37" gradientUnits="userSpaceOnUse" class="svga-on-canvas-facehighlight-gradient-single-1"><stop id="SvgjsStop2891" stop-opacity="0.5" stop-color="#ffe2d6" offset="0" ></stop><stop id="SvgjsStop2892" stop-opacity="0" stop-color="#ffd0bc" offset="0.9" ></stop></radialGradient><linearGradient id="SvgjsLinearGradient3079" x1="100" y1="171" x2="100" y2="130" gradientUnits="userSpaceOnUse" class="svga-on-canvas-chinshadow-gradient-single-0"><stop id="SvgjsStop3080" stop-opacity="0.8" stop-color="#f0b399" offset="0" ></stop><stop id="SvgjsStop3081" stop-opacity="1" stop-color="#d17f5b" offset="0.7" ></stop></linearGradient><linearGradient id="SvgjsLinearGradient3088" x1="100" y1="142" x2="100" y2="139" gradientUnits="userSpaceOnUse" class="svga-on-canvas-mouth-gradient-single-0"><stop id="SvgjsStop3089" stop-opacity="1" stop-color="#f7c1aa" offset="0.1" ></stop><stop id="SvgjsStop3090" stop-opacity="1" stop-color="#f0b399" offset="1" ></stop></linearGradient><radialGradient id="SvgjsRadialGradient3402" cx="-568.659" cy="-521.042" r="59.751" gradientTransform="matrix(0.096 -0.0248 0.0245 0.0961 141.2814 119.9893)" gradientUnits="userSpaceOnUse" class="svga-on-canvas-eyesiris-gradient-left-1"><stop id="SvgjsStop3403" stop-opacity="1" stop-color="#ffffff" offset="0" ></stop><stop id="SvgjsStop3404" stop-opacity="0" stop-color="#ffffff" offset="1" ></stop></radialGradient><radialGradient id="SvgjsRadialGradient3406" cx="-582.838" cy="-519.099" r="59.745" gradientTransform="matrix(0.0991 8.856319e-004 -0.0011 0.0991 131.1134 135.9855)" gradientUnits="userSpaceOnUse" class="svga-on-canvas-eyesiris-gradient-left-2"><stop id="SvgjsStop3407" stop-opacity="1" stop-color="#ffffff" offset="0" ></stop><stop id="SvgjsStop3408" stop-opacity="0" stop-color="#ffffff" offset="1" ></stop></radialGradient><linearGradient id="SvgjsLinearGradient3412" x1="122.67" y1="88.268" x2="123.606" y2="87.152" gradientTransform="matrix(1 0 0 1 -52 0)" gradientUnits="userSpaceOnUse" class="svga-on-canvas-eyesiris-gradient-left-5"><stop id="SvgjsStop3413" stop-opacity="1" stop-color="#ffffff" offset="0" ></stop><stop id="SvgjsStop3414" stop-opacity="0" stop-color="#ffffff" offset="1" ></stop></linearGradient><linearGradient id="SvgjsLinearGradient3416" x1="127.212" y1="82.296" x2="126.463" y2="83.189" gradientTransform="matrix(1 0 0 1 -52 0)" gradientUnits="userSpaceOnUse" class="svga-on-canvas-eyesiris-gradient-left-6"><stop id="SvgjsStop3417" stop-opacity="1" stop-color="#ffffff" offset="0" ></stop><stop id="SvgjsStop3418" stop-opacity="0" stop-color="#ffffff" offset="1" ></stop></linearGradient><linearGradient id="SvgjsLinearGradient3420" x1="129.636" y1="79.822" x2="127.91" y2="81.879" gradientTransform="matrix(1 0 0 1 -52 0)" gradientUnits="userSpaceOnUse" class="svga-on-canvas-eyesiris-gradient-left-7"><stop id="SvgjsStop3421" stop-opacity="1" stop-color="#ffffff" offset="0" ></stop><stop id="SvgjsStop3422" stop-opacity="0" stop-color="#ffffff" offset="1" ></stop></linearGradient><radialGradient id="SvgjsRadialGradient3425" cx="-568.654" cy="-521.042" r="59.752" gradientTransform="matrix(0.096 -0.0248 0.0245 0.0961 193.2804 119.9894)" gradientUnits="userSpaceOnUse" class="svga-on-canvas-eyesiris-gradient-right-1"><stop id="SvgjsStop3426" stop-opacity="1" stop-color="#ffffff" offset="0" ></stop><stop id="SvgjsStop3427" stop-opacity="0" stop-color="#ffffff" offset="1" ></stop></radialGradient><radialGradient id="SvgjsRadialGradient3429" cx="-582.833" cy="-519.102" r="59.747" gradientTransform="matrix(0.0991 8.856319e-004 -0.0011 0.0991 183.1126 135.9856)" gradientUnits="userSpaceOnUse" class="svga-on-canvas-eyesiris-gradient-right-2"><stop id="SvgjsStop3430" stop-opacity="1" stop-color="#ffffff" offset="0" ></stop><stop id="SvgjsStop3431" stop-opacity="0" stop-color="#ffffff" offset="1" ></stop></radialGradient><linearGradient id="SvgjsLinearGradient3435" x1="122.67" y1="88.268" x2="123.606" y2="87.152" gradientUnits="userSpaceOnUse" class="svga-on-canvas-eyesiris-gradient-right-5"><stop id="SvgjsStop3436" stop-opacity="1" stop-color="#ffffff" offset="0" ></stop><stop id="SvgjsStop3437" stop-opacity="0" stop-color="#ffffff" offset="1" ></stop></linearGradient><linearGradient id="SvgjsLinearGradient3439" x1="127.212" y1="82.296" x2="126.463" y2="83.189" gradientUnits="userSpaceOnUse" class="svga-on-canvas-eyesiris-gradient-right-6"><stop id="SvgjsStop3440" stop-opacity="1" stop-color="#ffffff" offset="0" ></stop><stop id="SvgjsStop3441" stop-opacity="0" stop-color="#ffffff" offset="1" ></stop></linearGradient><linearGradient id="SvgjsLinearGradient3443" x1="129.636" y1="79.822" x2="127.91" y2="81.879" gradientUnits="userSpaceOnUse" class="svga-on-canvas-eyesiris-gradient-right-7"><stop id="SvgjsStop3444" stop-opacity="1" stop-color="#ffffff" offset="0" ></stop><stop id="SvgjsStop3445" stop-opacity="0" stop-color="#ffffff" offset="1" ></stop></linearGradient><radialGradient id="SvgjsRadialGradient3447" cx="125.903" cy="85.096" r="13.25" gradientTransform="matrix(-1.0996 0.0423 0.0635 0.9207 206.5488 0.5932)" gradientUnits="userSpaceOnUse" class="svga-on-canvas-eyesback-gradient-left-0"><stop id="SvgjsStop3448" stop-opacity="1" stop-color="#ffffff" offset="0" ></stop><stop id="SvgjsStop3449" stop-opacity="1" stop-color="#fdfefe" offset="0.544" ></stop><stop id="SvgjsStop3450" stop-opacity="1" stop-color="#f6f8f9" offset="0.74" ></stop><stop id="SvgjsStop3451" stop-opacity="1" stop-color="#eaeff2" offset="0.879" ></stop><stop id="SvgjsStop3452" stop-opacity="1" stop-color="#d9e3e8" offset="0.992" ></stop><stop id="SvgjsStop3453" stop-opacity="1" stop-color="#d8e2e7" offset="1" ></stop></radialGradient><radialGradient id="SvgjsRadialGradient3455" cx="125.541" cy="85.113" r="13.249" gradientTransform="matrix(1.0996 0.0423 -0.0635 0.9207 -6.5488 0.5932)" gradientUnits="userSpaceOnUse" class="svga-on-canvas-eyesback-gradient-right-0"><stop id="SvgjsStop3456" stop-opacity="1" stop-color="#ffffff" offset="0" ></stop><stop id="SvgjsStop3457" stop-opacity="1" stop-color="#fdfefe" offset="0.544" ></stop><stop id="SvgjsStop3458" stop-opacity="1" stop-color="#f6f8f9" offset="0.74" ></stop><stop id="SvgjsStop3459" stop-opacity="1" stop-color="#eaeff2" offset="0.879" ></stop><stop id="SvgjsStop3460" stop-opacity="1" stop-color="#d9e3e8" offset="0.992" ></stop><stop id="SvgjsStop3461" stop-opacity="1" stop-color="#d8e2e7" offset="1" ></stop></radialGradient><radialGradient id="SvgjsRadialGradient3463" cx="125.903" cy="85.096" r="13.25" gradientTransform="matrix(-1.0996 0.0423 0.0635 0.9207 206.5488 0.5932)" gradientUnits="userSpaceOnUse" class="svga-on-canvas-eyesfront-gradient-left-0"><stop id="SvgjsStop3464" stop-opacity="1" stop-color="#ffffff" offset="0" ></stop><stop id="SvgjsStop3465" stop-opacity="1" stop-color="#fdfefe" offset="0.544" ></stop><stop id="SvgjsStop3466" stop-opacity="1" stop-color="#f6f8f9" offset="0.74" ></stop><stop id="SvgjsStop3467" stop-opacity="1" stop-color="#eaeff2" offset="0.879" ></stop><stop id="SvgjsStop3468" stop-opacity="1" stop-color="#d9e3e8" offset="0.992" ></stop><stop id="SvgjsStop3469" stop-opacity="1" stop-color="#d8e2e7" offset="1" ></stop></radialGradient><radialGradient id="SvgjsRadialGradient3473" cx="123.371" cy="81.442" fx="136.805" fy="80.36" r="17.038" gradientTransform="matrix(0.9884 0.1367 0.1336 -0.7354 -56.0677 125.3)" gradientUnits="userSpaceOnUse" class="svga-on-canvas-eyesfront-gradient-left-3"><stop id="SvgjsStop3474" stop-opacity="1" stop-color="#f0b399" offset="0" ></stop><stop id="SvgjsStop3475" stop-opacity="0.3" stop-color="#f0b399" offset="0.7" ></stop><stop id="SvgjsStop3476" stop-opacity="0" stop-color="#ffd0bc" offset="1" ></stop></radialGradient><radialGradient id="SvgjsRadialGradient3478" cx="78.965" cy="81.143" r="26.237" gradientTransform="matrix(0.7183 -0.06 0.0803 0.6143 8.7915 49.2595)" gradientUnits="userSpaceOnUse" class="svga-on-canvas-eyesfront-gradient-left-4"><stop id="SvgjsStop3479" stop-opacity="0" stop-color="#000000" offset="0.95" ></stop><stop id="SvgjsStop3480" stop-opacity="0.2" stop-color="#000000" offset="1" ></stop></radialGradient><radialGradient id="SvgjsRadialGradient3484" cx="125.541" cy="85.113" r="13.249" gradientTransform="matrix(1.0996 0.0423 -0.0635 0.9207 -6.5488 0.5932)" gradientUnits="userSpaceOnUse" class="svga-on-canvas-eyesfront-gradient-right-0"><stop id="SvgjsStop3485" stop-opacity="1" stop-color="#ffffff" offset="0" ></stop><stop id="SvgjsStop3486" stop-opacity="1" stop-color="#fdfefe" offset="0.544" ></stop><stop id="SvgjsStop3487" stop-opacity="1" stop-color="#f6f8f9" offset="0.74" ></stop><stop id="SvgjsStop3488" stop-opacity="1" stop-color="#eaeff2" offset="0.879" ></stop><stop id="SvgjsStop3489" stop-opacity="1" stop-color="#d9e3e8" offset="0.992" ></stop><stop id="SvgjsStop3490" stop-opacity="1" stop-color="#d8e2e7" offset="1" ></stop></radialGradient><radialGradient id="SvgjsRadialGradient3494" cx="122.972" cy="81.425" fx="136.406" fy="80.344" r="17.037" gradientTransform="matrix(-0.9884 0.1367 -0.1336 -0.7354 255.271 125.3424)" gradientUnits="userSpaceOnUse" class="svga-on-canvas-eyesfront-gradient-right-3"><stop id="SvgjsStop3495" stop-opacity="1" stop-color="#f0b399" offset="0" ></stop><stop id="SvgjsStop3496" stop-opacity="0.3" stop-color="#f0b399" offset="0.7" ></stop><stop id="SvgjsStop3497" stop-opacity="0" stop-color="#ffd0bc" offset="1" ></stop></radialGradient><radialGradient id="SvgjsRadialGradient3499" cx="79.515" cy="81.186" r="26.237" gradientTransform="matrix(-0.7183 -0.06 -0.0803 0.6143 191.2076 49.2665)" gradientUnits="userSpaceOnUse" class="svga-on-canvas-eyesfront-gradient-right-4"><stop id="SvgjsStop3500" stop-opacity="0" stop-color="#000000" offset="0.95" ></stop><stop id="SvgjsStop3501" stop-opacity="0.2" stop-color="#000000" offset="1" ></stop></radialGradient></defs></svg>