<?xml version="1.0" encoding="UTF-8" standalone="no"?><!DOCTYPE svg PUBLIC "-//W3C//DTD SVG 1.1//EN" "http://www.w3.org/Graphics/SVG/1.1/DTD/svg11.dtd"><svg width="100%" height="100%" viewBox="0 0 900 900" version="1.1" xmlns="http://www.w3.org/2000/svg" xmlns:xlink="http://www.w3.org/1999/xlink" xml:space="preserve" style="fill-rule:evenodd;clip-rule:evenodd;stroke-linejoin:round;stroke-miterlimit:1.41421;"><g id="BigBang"><g><path d="M465.014,144.492c48.982,-66.19 142.429,-80.527 209.026,-31.894c66.858,48.824 81.499,142.742 32.675,209.6l-242.276,-176.925l0.575,-0.781Z" style="fill:#ffa600;"/><path d="M495.155,166.803c36.737,-49.643 106.822,-60.395 156.769,-23.921c50.144,36.618 61.125,107.057 24.507,157.201l-181.707,-132.694l0.431,-0.586Z" style="fill:#ffe800;"/></g><path d="M626.531,236.717l-26.531,663.283l-300,0l-26.531,-663.283l353.062,0Z" style="fill:url(#_Radial1);"/><path d="M624.52,130.881c1.578,-0.783 5.48,-0.881 5.48,-0.881c0.884,0.119 1.768,0.239 2.652,0.358c0.821,0.35 1.696,0.593 2.463,1.049c0.767,0.456 1.478,1.021 2.096,1.665c1.247,1.298 2.121,2.909 2.529,4.663c0.202,0.869 0.168,1.776 0.252,2.665l-30,750c-0.195,0.997 -0.24,2.036 -0.585,2.993c-0.345,0.956 -0.843,1.869 -1.46,2.677c-1.249,1.635 -2.971,2.845 -4.933,3.465c-0.969,0.306 -2.008,0.31 -3.014,0.465l-300,0c-1.005,-0.155 -2.045,-0.159 -3.014,-0.465c-0.969,-0.306 -1.902,-0.768 -2.734,-1.352c-1.683,-1.182 -2.961,-2.855 -3.659,-4.79c-0.345,-0.957 -0.39,-1.996 -0.585,-2.993l-30,-750c0.084,-0.889 0.05,-1.796 0.252,-2.665c0.202,-0.869 0.524,-1.718 0.95,-2.502c0.858,-1.583 2.128,-2.905 3.675,-3.826c0.767,-0.456 1.602,-0.812 2.463,-1.049c0.86,-0.236 1.76,-0.388 2.652,-0.358c1.874,0.064 5.117,0.676 6.748,2.168c1.63,1.491 2.537,4.355 3.035,6.781c0.61,2.972 0.625,11.051 0.625,11.051l14.286,357.154c0.174,4.349 3.75,7.784 8.101,7.784c0.3,0 0.601,0 0.902,0c4.798,0 8.74,3.788 8.932,8.582c2.148,53.694 13.646,341.146 13.646,341.146l247.45,0c0,0 11.459,-286.471 13.635,-340.869c0.198,-4.949 4.268,-8.859 9.221,-8.859c0,0 0,0 0.001,0c4.699,0 8.561,-3.71 8.749,-8.406l14.261,-356.532c0,0 0.118,-12.117 0.939,-15.303c0.459,-1.782 2.41,-3.034 3.989,-3.816Z"/></g><defs><radialGradient id="_Radial1" cx="0" cy="0" r="1" gradientUnits="userSpaceOnUse" gradientTransform="matrix(176.531,0,0,331.641,450,568.359)"><stop offset="0" style="stop-color:#ffb600;stop-opacity:1"/><stop offset="1" style="stop-color:#ffe9c4;stop-opacity:1"/></radialGradient></defs></svg>