<?xml version="1.0" encoding="UTF-8" standalone="no"?><!DOCTYPE svg PUBLIC "-//W3C//DTD SVG 1.1//EN" "http://www.w3.org/Graphics/SVG/1.1/DTD/svg11.dtd"><svg width="100%" height="100%" viewBox="0 0 900 900" version="1.1" xmlns="http://www.w3.org/2000/svg" xmlns:xlink="http://www.w3.org/1999/xlink" xml:space="preserve" style="fill-rule:evenodd;clip-rule:evenodd;stroke-linejoin:round;stroke-miterlimit:1.41421;"><g id="Longdrink1"><path d="M626.531,236.717l-26.531,663.283l-300,0l-26.531,-663.283l353.062,0Z" style="fill:#0fa;"/><path d="M624.52,130.881c1.578,-0.783 5.48,-0.881 5.48,-0.881c0.884,0.119 1.768,0.239 2.652,0.358c0.821,0.35 1.696,0.593 2.463,1.049c0.767,0.456 1.478,1.021 2.096,1.665c1.247,1.298 2.121,2.909 2.529,4.663c0.202,0.869 0.168,1.776 0.252,2.665l-30,750c-0.195,0.997 -0.24,2.036 -0.585,2.993c-0.345,0.956 -0.843,1.869 -1.46,2.677c-1.249,1.635 -2.971,2.845 -4.933,3.465c-0.969,0.306 -2.008,0.31 -3.014,0.465l-300,0c-1.005,-0.155 -2.045,-0.159 -3.014,-0.465c-0.969,-0.306 -1.902,-0.768 -2.734,-1.352c-1.683,-1.182 -2.961,-2.855 -3.659,-4.79c-0.345,-0.957 -0.39,-1.996 -0.585,-2.993l-30,-750c0.084,-0.889 0.05,-1.796 0.252,-2.665c0.202,-0.869 0.524,-1.718 0.95,-2.502c0.858,-1.583 2.128,-2.905 3.675,-3.826c0.767,-0.456 1.602,-0.812 2.463,-1.049c0.86,-0.236 1.76,-0.388 2.652,-0.358c1.874,0.064 5.117,0.676 6.748,2.168c1.63,1.491 2.537,4.355 3.035,6.781c0.61,2.972 0.625,11.051 0.625,11.051l14.286,357.154c0.174,4.349 3.75,7.784 8.101,7.784c0.3,0 0.601,0 0.902,0c4.798,0 8.74,3.788 8.932,8.582c2.148,53.694 13.646,341.146 13.646,341.146l247.45,0c0,0 11.459,-286.471 13.635,-340.869c0.198,-4.949 4.268,-8.859 9.221,-8.859c0,0 0,0 0.001,0c4.699,0 8.561,-3.71 8.749,-8.406l14.261,-356.532c0,0 0.118,-12.117 0.939,-15.303c0.459,-1.782 2.41,-3.034 3.989,-3.816Z"/><g><clipPath id="_clip1"><polygon id="Strohhalm" points="570.061,81.346 603.581,91.416 373.404,857.587 339.884,847.517 570.061,81.346 "/></clipPath><g clip-path="url(#_clip1)"><path d="M603.581,91.416l-33.52,-10.07l-230.177,766.171l33.52,10.07l230.177,-766.171Z"/></g><g><path d="M535.996,722.89c7.95,-17.195 0.445,-37.609 -16.75,-45.559l-63.964,-29.574c-17.195,-7.95 -37.609,-0.444 -45.559,16.75l-28.809,62.31c-7.95,17.194 -0.444,37.608 16.751,45.558l63.964,29.574c17.195,7.95 37.609,0.445 45.559,-16.75l28.808,-62.309Z" style="fill:#ebebeb;fill-opacity:0.556863;"/></g><g><path d="M439.736,512.764c-8.973,-16.684 -29.802,-22.945 -46.486,-13.973l-62.065,33.377c-16.684,8.972 -22.945,29.802 -13.973,46.486l32.513,60.459c8.972,16.684 29.802,22.945 46.486,13.973l62.065,-33.377c16.684,-8.972 22.945,-29.802 13.973,-46.486l-32.513,-60.459Z" style="fill:#ebebeb;fill-opacity:0.556863;"/></g><g><path d="M593.066,456.294c7.95,-17.194 0.444,-37.609 -16.751,-45.559l-63.964,-29.573c-17.195,-7.95 -37.609,-0.445 -45.559,16.75l-28.809,62.309c-7.949,17.195 -0.444,37.609 16.751,45.559l63.964,29.574c17.195,7.95 37.609,0.444 45.559,-16.75l28.809,-62.31Z" style="fill:#ebebeb;fill-opacity:0.556863;"/></g></g></g></svg>