<?xml version="1.0" encoding="UTF-8" standalone="no"?><!DOCTYPE svg PUBLIC "-//W3C//DTD SVG 1.1//EN" "http://www.w3.org/Graphics/SVG/1.1/DTD/svg11.dtd"><svg width="100%" height="100%" viewBox="0 0 900 900" version="1.1" xmlns="http://www.w3.org/2000/svg" xmlns:xlink="http://www.w3.org/1999/xlink" xml:space="preserve" style="fill-rule:evenodd;clip-rule:evenodd;stroke-linejoin:round;stroke-miterlimit:1.41421;"><g id="MarcelsOma"><g><path d="M600,892c0,0 -100.006,-25.495 -150.006,-25.495c-50,0 -149.994,25.495 -149.994,25.495l0,8l300,0l0,-8Z"/><rect x="430" y="745.887" width="40" height="130.766"/></g><path d="M565.803,157.551c-8.089,36.51 -14.602,84.386 -15.283,144.975c-0.915,81.359 49.902,258.006 49.468,344.729c-0.079,15.686 0.051,15.895 0,15.745l0,0l0,0.015c0,82.793 -67.21,150.011 -149.994,150.014c-82.785,-0.003 -149.994,-67.221 -149.994,-150.014l0,-0.015l0,0c-0.051,0.15 0.079,-0.059 0,-15.745c-0.434,-86.723 50.382,-263.37 49.468,-344.729c-0.682,-60.59 -7.194,-108.465 -15.283,-144.975l231.618,0Z" style="fill:url(#_Radial1);"/><path d="M593.922,54.105l6.066,-1.105c1.013,0.158 2.026,0.315 3.039,0.473c0.917,0.458 1.916,0.781 2.751,1.374c1.692,1.202 2.968,2.9 3.652,4.859c0.337,0.968 0.527,2.001 0.554,3.026c0.028,1.025 -0.106,2.066 -0.391,3.05c-0.285,0.985 -0.867,1.859 -1.3,2.788c-0.133,0.198 -0.26,0.4 -0.387,0.601c-1.256,2.006 -2.411,4.074 -3.523,6.162c-1.454,2.727 -2.826,5.497 -4.14,8.294c-1.63,3.468 -3.169,6.978 -4.635,10.519c-1.739,4.195 -3.375,8.434 -4.925,12.703c-3.886,10.705 -7.236,21.602 -10.176,32.603c-3.261,12.196 -6.015,24.526 -8.355,36.931c-2.645,14.023 -4.761,28.145 -6.435,42.316c-1.859,15.741 -3.173,31.544 -4.024,47.37c-0.464,8.63 -0.791,17.267 -0.991,25.907c-0.059,2.575 -0.108,5.151 -0.145,7.727c-0.032,2.208 -0.06,4.417 -0.043,6.625c0.034,4.168 0.191,8.334 0.43,12.494c0.242,4.227 0.569,8.448 0.956,12.664c0.474,5.174 1.039,10.339 1.665,15.496c1.273,10.477 2.798,20.922 4.454,31.345c1.806,11.371 3.773,22.715 5.818,34.045c2.43,13.461 4.976,26.9 7.545,40.334c2.144,11.191 4.303,22.378 6.446,33.569c3.177,16.615 6.319,33.237 9.259,49.896c2.371,13.428 4.616,26.88 6.599,40.372c1.812,12.331 3.406,24.698 4.582,37.107c0.404,4.266 0.75,8.538 1.029,12.814c0.44,6.761 0.703,13.533 0.693,20.309c-0.008,1.898 -0.017,3.796 -0.023,5.694c-0.006,2.839 -0.013,5.678 0.01,8.518c0.005,0.636 0.015,1.272 0.023,1.908l0,0.257c-0.004,0.127 -0.002,0.127 -0.013,0.253c-0.001,0.559 -0.006,1.117 -0.012,1.676c-0.039,2.735 -0.139,5.467 -0.312,8.197c-0.32,5.048 -0.878,10.08 -1.675,15.075c-2.098,13.16 -5.856,26.048 -11.162,38.272c-3.854,8.879 -8.52,17.404 -13.915,25.44c-5.623,8.376 -12.038,16.219 -19.128,23.395c-6.751,6.833 -14.113,13.06 -21.973,18.581c-7.777,5.463 -16.04,10.234 -24.663,14.231c-7.101,3.292 -14.445,6.06 -21.954,8.27c-8.125,2.393 -16.441,4.133 -24.844,5.202c-17.144,2.183 -34.645,1.593 -51.598,-1.77c-7.433,-1.475 -14.76,-3.482 -21.906,-6.001c-7.347,-2.591 -14.503,-5.723 -21.392,-9.361c-8.242,-4.351 -16.101,-9.426 -23.463,-15.143c-6.824,-5.298 -13.219,-11.148 -19.106,-17.471c-6.112,-6.566 -11.675,-13.644 -16.608,-21.137c-4.7,-7.14 -8.829,-14.656 -12.328,-22.455c-5.653,-12.598 -9.652,-25.929 -11.869,-39.558c-0.893,-5.493 -1.499,-11.033 -1.816,-16.589c-0.166,-2.906 -0.248,-5.815 -0.262,-8.726l0,-0.128l-0.008,-0.082l-0.005,-0.171c0,-0.239 -0.001,-0.239 0.002,-0.478c0.009,-0.563 0.015,-1.125 0.021,-1.687c0.022,-3.227 0.017,-6.454 0.006,-9.681c-0.006,-1.688 -0.017,-3.377 -0.02,-5.065c0.001,-0.538 0.002,-1.076 0.005,-1.613c0.047,-6.458 0.329,-12.91 0.769,-19.352c0.321,-4.718 0.726,-9.43 1.192,-14.136c0.601,-6.081 1.305,-12.152 2.08,-18.214c0.819,-6.401 1.718,-12.791 2.673,-19.173c2.029,-13.551 4.311,-27.063 6.711,-40.553c2.97,-16.685 6.13,-33.336 9.318,-49.981c1.952,-10.17 3.912,-20.34 5.861,-30.511c2.569,-13.434 5.114,-26.873 7.545,-40.334c2.045,-11.33 4.011,-22.675 5.818,-34.045c1.656,-10.423 3.181,-20.868 4.453,-31.345c0.581,-4.777 1.104,-9.56 1.559,-14.35c0.437,-4.596 0.798,-9.2 1.063,-13.809c0.238,-4.161 0.396,-8.327 0.429,-12.495c0.018,-2.209 -0.01,-4.418 -0.042,-6.627c-0.038,-2.578 -0.086,-5.156 -0.146,-7.733c-0.207,-8.945 -0.55,-17.886 -1.041,-26.819c-0.882,-16.053 -2.24,-32.081 -4.163,-48.043c-1.725,-14.309 -3.903,-28.567 -6.626,-42.721c-2.462,-12.792 -5.367,-25.502 -8.823,-38.064c-2.947,-10.714 -6.293,-21.324 -10.161,-31.742c-1.459,-3.929 -2.993,-7.83 -4.617,-11.694c-1.507,-3.587 -3.09,-7.144 -4.771,-10.654c-1.306,-2.728 -2.667,-5.432 -4.118,-8.086c-0.579,-1.058 -1.169,-2.111 -1.78,-3.152c-0.441,-0.752 -0.892,-1.499 -1.365,-2.232c-0.036,-0.057 -0.073,-0.113 -0.11,-0.169l-0.013,-0.019l-1.301,-2.787c-0.131,-1.017 -0.42,-2.026 -0.392,-3.051c0.027,-1.026 0.216,-2.058 0.553,-3.026c0.338,-0.969 0.832,-1.895 1.447,-2.715c1.247,-1.659 2.979,-2.89 4.956,-3.521c0.977,-0.312 10.532,-0.894 11.545,-1.052l8.331,20.579c0.25,0.518 0.497,1.037 0.744,1.556c0.235,0.499 0.469,0.998 0.702,1.497c0.663,1.431 1.315,2.867 1.953,4.31c3.773,8.532 7.111,17.254 10.131,26.08c3.988,11.653 7.415,23.495 10.402,35.442c3.668,14.673 6.669,29.511 9.131,44.433c2.805,17.007 4.906,34.128 6.426,51.297c1.358,15.345 2.251,30.731 2.742,46.128c0.145,4.559 0.255,9.118 0.33,13.678c0.054,3.195 0.104,6.39 0.071,9.585c-0.056,5.458 -0.303,10.913 -0.669,16.358c-0.642,9.557 -1.647,19.088 -2.839,28.59c-1.294,10.328 -2.816,20.627 -4.461,30.905c-1.767,11.042 -3.68,22.061 -5.667,33.067c-2.442,13.529 -5.001,27.037 -7.583,40.54c-2.144,11.19 -4.303,22.378 -6.446,33.568c-3.066,16.032 -6.098,32.071 -8.947,48.143c-2.353,13.274 -4.586,26.571 -6.565,39.907c-0.986,6.646 -1.908,13.302 -2.736,19.97c-0.673,5.414 -1.284,10.836 -1.808,16.267c-0.45,4.662 -0.837,9.331 -1.134,14.006c-0.38,5.961 -0.611,11.931 -0.616,17.903c0.003,2.062 0.017,4.124 0.023,6.186c0.008,3.51 0.021,7.021 -0.031,10.531c-0.001,0.025 0.007,0.049 0.011,0.074l0,-0.004c0.001,0.452 0.003,0.904 0.006,1.356c0.027,2.399 0.107,4.796 0.251,7.19c0.284,4.713 0.805,9.412 1.563,14.073c1.824,11.213 5.027,22.197 9.519,32.632c3.348,7.779 7.408,15.251 12.108,22.296c4.98,7.466 10.677,14.453 16.985,20.837c5.911,5.984 12.358,11.437 19.241,16.272c6.805,4.78 14.035,8.955 21.58,12.452c6.598,3.059 13.437,5.6 20.433,7.589c6.708,1.908 13.56,3.308 20.478,4.188c15.3,1.948 30.925,1.376 46.036,-1.72c6.203,-1.272 12.32,-2.967 18.292,-5.073c6.424,-2.265 12.681,-5.004 18.705,-8.185c7.214,-3.809 14.092,-8.251 20.535,-13.254c5.976,-4.64 11.577,-9.763 16.733,-15.302c5.352,-5.749 10.222,-11.946 14.542,-18.507c4.19,-6.364 7.861,-13.07 10.959,-20.033c2.494,-5.604 4.617,-11.373 6.349,-17.257c1.677,-5.698 2.988,-11.503 3.923,-17.369c0.79,-4.96 1.313,-9.963 1.567,-14.98c0.122,-2.403 0.179,-4.809 0.183,-7.216l0,-0.006l0.011,-0.071c-0.009,-0.594 -0.016,-1.188 -0.021,-1.781c-0.023,-3.304 -0.018,-6.607 -0.007,-9.91c0.005,-1.669 0.017,-3.338 0.019,-5.008c0,-0.658 -0.003,-1.317 -0.008,-1.976c-0.058,-6.069 -0.336,-12.134 -0.758,-18.188c-0.329,-4.732 -0.746,-9.458 -1.224,-14.178c-0.6,-5.92 -1.297,-11.831 -2.062,-17.732c-0.815,-6.283 -1.707,-12.555 -2.653,-18.819c-2.025,-13.403 -4.295,-26.768 -6.679,-40.111c-2.877,-16.104 -5.928,-32.176 -9.005,-48.242c-1.953,-10.173 -3.914,-20.345 -5.863,-30.518c-2.582,-13.504 -5.14,-27.011 -7.583,-40.541c-1.903,-10.54 -3.737,-21.093 -5.442,-31.668c-1.662,-10.314 -3.204,-20.65 -4.523,-31.014c-1.215,-9.55 -2.247,-19.128 -2.923,-28.732c-0.41,-5.826 -0.687,-11.664 -0.747,-17.505c-0.033,-3.194 0.017,-6.388 0.07,-9.581c0.076,-4.557 0.186,-9.113 0.331,-13.667c0.49,-15.387 1.381,-30.761 2.738,-46.096c1.539,-17.396 3.674,-34.744 6.534,-51.974c2.625,-15.813 5.858,-31.53 9.852,-47.055c3.073,-11.945 6.596,-23.78 10.696,-35.414c3.597,-10.206 7.635,-20.266 12.317,-30.025l0.094,-0.194l7.854,-15.223l2.916,-3.672Zm-293.922,618.895l0.122,-0.088l-0.215,-0.005c0.031,0.031 0.062,0.062 0.093,0.093Zm9.988,-10.058l0,-0.119l-0.022,-0.699c-0.067,-0.456 -0.037,-0.469 -0.244,-0.88c0.089,0.566 0.177,1.132 0.266,1.698Zm280.116,-1.377c-0.092,0.625 -0.084,0.626 -0.104,1.258l0,0.099l0.264,-1.675c-0.053,0.106 -0.107,0.212 -0.16,0.318Zm-299.303,-2.484c-0.148,0.346 -0.148,0.346 -0.269,0.702l0.64,-1.222c-0.124,0.174 -0.247,0.347 -0.371,0.52Zm318.655,0.702c-0.059,-0.172 -0.175,-0.545 -0.269,-0.702c-0.112,-0.185 -0.251,-0.352 -0.377,-0.527c0.215,0.409 0.431,0.819 0.646,1.229Zm-302.249,-3.543l-0.145,-0.29l-0.148,-0.003c0.098,0.098 0.196,0.195 0.293,0.293Zm285.719,-0.29l-0.145,0.288l0.29,-0.291c-0.049,0.001 -0.097,0.002 -0.145,0.003Zm13.633,-0.34l0.494,0.483l-0.348,-0.487c-0.049,0.001 -0.097,0.003 -0.146,0.004Zm-313.621,0.479l0.487,-0.479l-0.143,-0.004c-0.114,0.161 -0.229,0.322 -0.344,0.483Z"/><g><clipPath id="_clip2"><polygon id="Strohhalm" points="553.025,21.927 586.545,31.998 372.169,745.571 338.649,735.5 553.025,21.927 "/></clipPath><g clip-path="url(#_clip2)"><path d="M586.545,31.998l-33.52,-10.071l-214.376,713.573l33.52,10.071l214.376,-713.573Z"/></g><g><path d="M532.219,703.423c7.95,-17.195 0.445,-37.609 -16.75,-45.559l-63.964,-29.574c-17.195,-7.95 -37.609,-0.444 -45.559,16.751l-28.809,62.309c-7.95,17.195 -0.444,37.609 16.751,45.559l63.964,29.574c17.195,7.949 37.609,0.444 45.559,-16.751l28.808,-62.309Z" style="fill:#ebebeb;fill-opacity:0.556863;"/></g><g><path d="M462.595,492.335c-8.972,-16.684 -29.802,-22.945 -46.486,-13.973l-62.065,33.377c-16.684,8.972 -22.945,29.802 -13.973,46.486l32.513,60.459c8.973,16.684 29.802,22.945 46.486,13.973l62.065,-33.377c16.684,-8.972 22.945,-29.802 13.973,-46.486l-32.513,-60.459Z" style="fill:#ebebeb;fill-opacity:0.556863;"/></g><g><path d="M527.541,377.181c7.95,-17.194 0.444,-37.608 -16.75,-45.558l-63.965,-29.574c-17.194,-7.95 -37.609,-0.445 -45.559,16.75l-28.808,62.309c-7.95,17.195 -0.444,37.609 16.75,45.559l63.965,29.574c17.194,7.95 37.609,0.444 45.559,-16.75l28.808,-62.31Z" style="fill:#ebebeb;fill-opacity:0.556863;"/></g></g></g><defs><radialGradient id="_Radial1" cx="0" cy="0" r="1" gradientUnits="userSpaceOnUse" gradientTransform="matrix(150.006,0,0,327.739,449.994,485.29)"><stop offset="0" style="stop-color:#ff7f00;stop-opacity:1"/><stop offset="1" style="stop-color:#f4ff00;stop-opacity:1"/></radialGradient></defs></svg>