<?xml version="1.0" encoding="UTF-8" standalone="no"?><!DOCTYPE svg PUBLIC "-//W3C//DTD SVG 1.1//EN" "http://www.w3.org/Graphics/SVG/1.1/DTD/svg11.dtd"><svg width="100%" height="100%" viewBox="0 0 900 900" version="1.1" xmlns="http://www.w3.org/2000/svg" xmlns:xlink="http://www.w3.org/1999/xlink" xml:space="preserve" style="fill-rule:evenodd;clip-rule:evenodd;stroke-linejoin:round;stroke-miterlimit:1.41421;"><g id="MarcelsOranas"><rect x="0" y="0" width="900" height="900" style="fill:none;"/><g><path d="M503.818,200.687c48.983,-66.19 142.43,-80.528 209.026,-31.894c66.858,48.823 81.5,142.742 32.676,209.6l-242.276,-176.925l0.574,-0.781Z" style="fill:#ffa600;"/><path d="M533.959,222.998c36.737,-49.643 106.822,-60.396 156.77,-23.921c50.143,36.618 61.124,107.057 24.506,157.2l-181.706,-132.693l0.43,-0.586Z" style="fill:#ffe800;"/></g><g><path d="M600,892c0,0 -100.006,-25.495 -150.006,-25.495c-50,0 -149.994,25.495 -149.994,25.495l0,8l300,0l0,-8Z"/><rect x="430" y="549.81" width="40" height="326.843"/></g><path d="M450,582.893l-163.837,-282.893l327.674,0l-163.837,282.893Z" style="fill:url(#_Linear1);"/><path d="M645.979,228.287c1.182,-0.677 2.859,-0.681 4.021,-0.728c0.993,-0.04 1.966,0.297 2.949,0.445c0.896,0.432 1.866,0.735 2.687,1.295c1.662,1.134 2.942,2.742 3.676,4.614c0.362,0.926 0.587,1.917 0.661,2.909c0.073,0.991 -0.004,2.005 -0.226,2.974c-0.223,0.969 -0.729,1.85 -1.093,2.775l-200,345.333c-1.628,2.036 -1.89,2.832 -4.32,4.001c-1.809,0.87 -3.838,1.175 -5.823,0.876c-0.981,-0.147 -1.95,-0.446 -2.845,-0.876c-0.894,-0.43 -1.733,-1.001 -2.461,-1.675c-0.728,-0.675 -1.239,-1.551 -1.859,-2.326l-200,-345.333c-0.956,-2.429 -1.518,-3.055 -1.319,-5.749c0.074,-0.992 0.299,-1.983 0.661,-2.909c0.734,-1.872 2.014,-3.48 3.676,-4.614c0.821,-0.56 1.737,-1.002 2.687,-1.295c0.95,-0.293 1.96,-0.55 2.949,-0.445c1.318,0.14 3.519,0.369 4.961,1.285c1.463,0.93 3.816,4.292 3.816,4.292l8.571,14.423l182.652,315.38l182.652,-315.38c0,0 7.907,-12.651 10.128,-15.863c0.886,-1.282 1.996,-2.72 3.199,-3.409Z"/></g><defs><linearGradient id="_Linear1" x1="0" y1="0" x2="1" y2="0" gradientUnits="userSpaceOnUse" gradientTransform="matrix(1.58593e-14,259.001,-259.001,1.58593e-14,450,300)"><stop offset="0" style="stop-color:#ff9200;stop-opacity:1"/><stop offset="1" style="stop-color:#ffecc4;stop-opacity:1"/></linearGradient></defs></svg>